<mxfile host="app.diagrams.net" agent="Mozilla/5.0 (Windows NT 10.0; Win64; x64) AppleWebKit/537.36 (KHTML, like Gecko) Chrome/138.0.0.0 Safari/537.36" version="28.0.7">
  <diagram name="第 1 页" id="eb0PiZGBheINB1z0Jh17">
    <mxGraphModel dx="1669" dy="613" grid="1" gridSize="10" guides="1" tooltips="1" connect="1" arrows="1" fold="1" page="1" pageScale="1" pageWidth="850" pageHeight="1100" math="0" shadow="0">
      <root>
        <mxCell id="0" />
        <mxCell id="1" parent="0" />
        <mxCell id="DiaToFT7Mst47RzkWSO3-18" value="&lt;h1 style=&quot;box-sizing: border-box; outline: 0px; margin: 0px; padding: 0px; font-family: &amp;quot;PingFang SC&amp;quot;, &amp;quot;Microsoft YaHei&amp;quot;, SimHei, Arial, SimSun; font-size: 28px; overflow-wrap: break-word; color: rgb(34, 34, 38); word-break: break-all; font-variant-ligatures: common-ligatures; text-align: start; background-color: rgb(255, 255, 255);&quot; id=&quot;articleContentId&quot; class=&quot;title-article&quot;&gt;AutoSAR -闪烁一颗LED&lt;/h1&gt;" style="rounded=0;whiteSpace=wrap;html=1;" vertex="1" parent="1">
          <mxGeometry x="200" y="10" width="480" height="60" as="geometry" />
        </mxCell>
        <UserObject label="&lt;a href=&quot;https://blog.csdn.net/xyfx_fhw/article/details/107795620&quot;&gt;AutoSAR系列讲解（深入篇）13.1-闪烁一颗LED灯 1_autosar系列讲解(深入篇)13.1-闪烁一颗led灯-CSDN博客&lt;/a&gt;" link="&lt;a href=&quot;https://blog.csdn.net/xyfx_fhw/article/details/107795620&quot;&gt;AutoSAR系列讲解（深入篇）13.1-闪烁一颗LED灯 1_autosar系列讲解(深入篇)13.1-闪烁一颗led灯-CSDN博客&lt;/a&gt;" id="DiaToFT7Mst47RzkWSO3-20">
          <mxCell style="text;whiteSpace=wrap;html=1;" vertex="1" parent="1">
            <mxGeometry x="-390" y="660" width="480" height="50" as="geometry" />
          </mxCell>
        </UserObject>
        <mxCell id="DiaToFT7Mst47RzkWSO3-21" value="" style="shape=image;verticalLabelPosition=bottom;labelBackgroundColor=default;verticalAlign=top;aspect=fixed;imageAspect=0;editableCssRules=.*;image=data:image/svg+xml,PHN2ZyB4bWxuczp4bGluaz0iaHR0cDovL3d3dy53My5vcmcvMTk5OS94bGluayIgeG1sbnM9Imh0dHA6Ly93d3cudzMub3JnLzIwMDAvc3ZnIiBzdHlsZT0iY29sb3I6IHJnYigwLCAwLCAwKTsgZm9udC1zaXplOiBtZWRpdW07IGZvbnQtc3R5bGU6IG5vcm1hbDsgZm9udC12YXJpYW50LWxpZ2F0dXJlczogbm9ybWFsOyBmb250LXZhcmlhbnQtY2Fwczogbm9ybWFsOyBmb250LXdlaWdodDogNDAwOyBsZXR0ZXItc3BhY2luZzogbm9ybWFsOyBvcnBoYW5zOiAyOyB0ZXh0LWFsaWduOiBzdGFydDsgdGV4dC1pbmRlbnQ6IDBweDsgdGV4dC10cmFuc2Zvcm06IG5vbmU7IHdpZG93czogMjsgd29yZC1zcGFjaW5nOiAwcHg7IC13ZWJraXQtdGV4dC1zdHJva2Utd2lkdGg6IDBweDsgd2hpdGUtc3BhY2U6IG5vcm1hbDsgdGV4dC1kZWNvcmF0aW9uLXRoaWNrbmVzczogaW5pdGlhbDsgdGV4dC1kZWNvcmF0aW9uLXN0eWxlOiBpbml0aWFsOyB0ZXh0LWRlY29yYXRpb24tY29sb3I6IGluaXRpYWw7IiBvdmVyZmxvdz0iaGlkZGVuIiB4bWw6c3BhY2U9InByZXNlcnZlIiBoZWlnaHQ9IjM2My4wMDE1NTYzOTY0ODQ0IiB3aWR0aD0iNDc5LjAwMDM5NjcyODUxNTYiIHZpZXdCb3g9Ii0wLjAwMDAzMDUxNzU3ODEyNSAwIDQ3OS4wMDAzOTY3Mjg1MTU2IDM2My4wMDE1NTYzOTY0ODQ0Ij48ZGVmcz48Y2xpcFBhdGggaWQ9ImNsaXAwIj48cmVjdCBoZWlnaHQ9IjM2MyIgd2lkdGg9IjQ3OSIgeT0iMTIyIiB4PSIzNjkiLz48L2NsaXBQYXRoPjxjbGlwUGF0aCBpZD0iY2xpcDEiPjxyZWN0IGhlaWdodD0iMzQ1NzU3NSIgd2lkdGg9IjQ1NjI0NzUiIHk9IjAiIHg9IjAiLz48L2NsaXBQYXRoPjxpbWFnZSBpZD0iaW1nMiIgcHJlc2VydmVBc3BlY3RSYXRpbz0ibm9uZSIgeGxpbms6aHJlZj0iZGF0YTppbWFnZS9qcGVnO2Jhc2U2NCwvOWovNEFBUVNrWkpSZ0FCQVFFQVlBQmdBQUQvMndCREFBTUNBZ01DQWdNREF3TUVBd01FQlFnRkJRUUVCUW9IQndZSURBb01EQXNLQ3dzTkRoSVFEUTRSRGdzTEVCWVFFUk1VRlJVVkRBOFhHQllVR0JJVUZSVC8yd0JEQVFNRUJBVUVCUWtGQlFrVURRc05GQlFVRkJRVUZCUVVGQlFVRkJRVUZCUVVGQlFVRkJRVUZCUVVGQlFVRkJRVUZCUVVGQlFVRkJRVUZCUVVGQlFVRkJUL3dBQVJDQUZyQWVBREFTSUFBaEVCQXhFQi84UUFId0FBQVFVQkFRRUJBUUVBQUFBQUFBQUFBQUVDQXdRRkJnY0lDUW9MLzhRQXRSQUFBZ0VEQXdJRUF3VUZCQVFBQUFGOUFRSURBQVFSQlJJaE1VRUdFMUZoQnlKeEZES0JrYUVJSTBLeHdSVlMwZkFrTTJKeWdna0tGaGNZR1JvbEppY29LU28wTlRZM09EazZRMFJGUmtkSVNVcFRWRlZXVjFoWldtTmtaV1puYUdscWMzUjFkbmQ0ZVhxRGhJV0doNGlKaXBLVGxKV1dsNWlabXFLanBLV21wNmlwcXJLenRMVzJ0N2k1dXNMRHhNWEd4OGpKeXRMVDFOWFcxOWpaMnVIaTQrVGw1dWZvNmVyeDh2UDA5ZmIzK1BuNi84UUFId0VBQXdFQkFRRUJBUUVCQVFBQUFBQUFBQUVDQXdRRkJnY0lDUW9MLzhRQXRSRUFBZ0VDQkFRREJBY0ZCQVFBQVFKM0FBRUNBeEVFQlNFeEJoSkJVUWRoY1JNaU1vRUlGRUtSb2JIQkNTTXpVdkFWWW5MUkNoWWtOT0VsOFJjWUdSb21KeWdwS2pVMk56ZzVPa05FUlVaSFNFbEtVMVJWVmxkWVdWcGpaR1ZtWjJocGFuTjBkWFozZUhsNmdvT0VoWWFIaUltS2twT1VsWmFYbUptYW9xT2twYWFucUttcXNyTzB0YmEzdUxtNndzUEV4Y2JIeU1uSzB0UFUxZGJYMk5uYTR1UGs1ZWJuNk9ucTh2UDA5ZmIzK1BuNi85b0FEQU1CQUFJUkF4RUFQd0Q5VTZLS0tBQ2lpaWdBb29vb0FLS3dienhMSkhlM0Z2YldmbmlCZ2p5U1NiQVd3RGdjSE9BUnpVWC9BQWtsNy8wRDR2OEF3SVAvQU1UUUIwZEZjNS93a3Q3L0FOQStML3dJL3dEc2FENG12RkJKMDZNZ2NrTGNjLzhBb05BSFIwVkRaM1NYdHJEY1I1OHVWQTY1NjRJelUxQUJSUlJRQVVVVVVBRkZGRkFCUlJSUUFVVmdYWGlXVmJ1ZUsyc3hNa0wrVzBqeTdNc091Qmc4Vkgvd2t0Ny9BTkErTC93SS93RHNhQU9qb3JuUCtFbHZmK2dmRi80RWYvWTBmOEpMZS84QVFQaS84Q1AvQUxHZ0RvNks1ei9oSmIzL0FLQjhYL2dSL3dEWTBmOEFDUzN2L1FQaS93REFqLzdHZ0RvNktwNlRxUzZyWmljUnRFd1prZU5qa3F3T0NNOS8vcjFjb0FLS0tLQUNpaWlnQW9vb29BS0tLS0FDaXErb1hpYWRaVFhNZ0pTSlN4QzlUN0NzVC9oSmIzL29IUmo2M0gvMk5BSFIwVnpuL0NTM3YvUVBpLzhBQWovN0dqL2hKTDMvQUtCOFgvZ1Ivd0RZMEFkSFJYT2Y4SkxlL3dEUVBpLzhDUDhBN0dqL0FJU1c5LzZCOFgvZ1IvOEFZMEFkSFJYT2Y4SkxlLzhBUVBpLzhDUC9BTEdsL3dDRWt2ZitnZkYvNEVIL0FPSm9BNktpdWMvNFNTOS82QjhYL2dRZi9pYVArRWx2ZitnZkYvNEVmL1kwQWRIUlhPLzhKTGU5OU9qL0FBdVAvc2EydFB2VTFHeWh1WXdWU1ZRd0RkUjdHZ0N4UlJSUUFVVVVVQUZGRkZBQlJSUlFBVVVVVUFGRkZGQUJSUlJRQVVVVVVBRkZGRkFIR0Qva0phcC8xOUgvQU5BV3VULzRXeDRmK3ozRng1bDBiU09DYTVpdWZzc25sWFNSRExtRjhZazQ1R1B2RGxjam11cjJodFExVUhrRzVZSC9BTDRXdk5wdmd2TmNlRmJUdzVKclVMNlRwbGhMWWFYRzFpUzhTdEEwQ21adk54THRqWWpBQ1o2bm1nRHBJZmlWcFhuYVZEZHdhaHBVdXFYWnNyUk5RdEhoTWtnak1uZm9DRklCUFZzRHFSV2w0YzhXYWI0dWgxR1RUSm1tU3h2SmJDWm1RcmlXTTRZRFBVYzhFY0h0WERYSHdXa3Z0RmhzWHU5RjB4N1dkcnExZlF0Rit4cEhQc0FqbEtHWjl6STZvK2NqTzBEM3JyL0JuZzZQd1hZM3R0RmNlZkhQTXNxL0p0MkJZSW9zZFRuUGxicy83WDRrNmgwTy93RERmL0l2NmQvMTdwLzZDSzBxemZEZi9JdjZkLzE3cC82Q0swcUFDaWlpZ0Fvb29vQUtLS0tBQ2lpaWdEaUpKMHRaTlVta09JNDdpVjJPT3c1TmNuRjhWOU1sMHVLL0dtYTBzRTd4SmJodE9rRFhCa0JaZkxIOFhDa24wR0s2cTV0dnRpNnhiN3RubXpUUjdzWnhuak5lV1cvd0tudC9EMXZwWG0rRXhIQkpieS91L0M1VkxreEt5ajdRbjJuOTdrTVQxR0R6N1VBZC9aK090RnZORjA3VlJkbUcwdjdnV2tIMmlObzNNeGNwNVpWaGxXREt5a0h1RFYyRHhObzkwWUJEcXRqTVp3V2lFZHdqZVlCbkpYQjV4ZzlQU3VhMFg0YnZvL2hEU2RGVFVZM2V3MUQ3Y3NndFNzUUhudEw1VWNlLzVFQVlvbzNIYUF2WEdLNTl2Z0hibTYwaVE2cHZoc3JDMXNwSUdTWVJ5R0FPRmNSck9zZkpmSkRvL3dCUm1nRDBWZkUyanlSUXlMcXRpMGN6K1hFNHVVSWR2N3FuUEo1SEFxelo2cFo2aEpQSGEzY0Z5OERiSlZoa1Z6RzNvd0I0UHNhOHMwdjRFM09tYVpMWkR4REhLazZ5UVNDU3llVHk0SEVRMlJNODdPckR5c2huWjhic0FBS29IVWVCUGgyL2d2V2RjdmY3U0Z6QnFMaDB0VWhaRWd3OGprZ3RJL1V5ZEYySU1aQ0FrMHdQUi9DZi9IamMvd0RYekovT3R1c1R3bi94NDNQL0FGOHlmenJicEFGRkZGQUJSUlJRQVVVVVVBRkZGRkFHVDRxLzVGKzkvd0J6K29yamZGSGl5ejhKdzJiWFVOM2N5WGsvMmFDQ3lnYWFSMzJNK0FvLzJVWS9oWFplS3Y4QWtYNzMvYy9xSzRUeGw0WnYvRUQ2TmNhWnFOdHB0N3BkNGJ1Tjd1MGE1amZNTWtSVW9za1o2U2s1M2R1bEFEOU44ZTZGcW1uVzkzRGZvdm5oL0x0cHdZcmdzaEt1bmxQaHc0WlNDdU01Rkl2ajdScExyU1lFdVM3YW5hL2JZR0NuYUlmbHd6SG91ZHd4bnJodlExd2w1OENieSsxZXd2cFBFNVBrMzBHcFhFWXMyUVRUcGRtNGJHeVVEWTJkZ1Z4SnR3Q09jazYwUHdiaXQ0cjZOTlVZcE5kK2RCdmczZlo0TVNsYmNmTnlxdFBJUjB3TUxqak5IUURzMThVYU05dWs2NnZZdEE4bmxMSUxsQ3BmcnRCejE5cXo5YzhlYWRvTmpwdHpKRmVYWDlvM0J0cmFHenQybWtrY0k3a2JWN2JZM09mYXVWaytETFJhbEhmV1dxMjhFcTJ2MkpvNTlPV2FMeXpGREc1Q0Z3Ti83aFNHT1FBU0NyVnFhaDhQTlEvc253eEJwZXNXMXJlNkhldmRwUGQyTFR4eTdvcG95cFJaVUk0bUp6dS9oNmMwQWIybStOTkUxU3h0THVQVUlZVXVsWm80N28rUkw4cEljR044TUNwQkJCR1FRYzFjbThRYVhibFJMcVZuRVdLcXUrZEJrc01xQnozSEk5YTg1UHdKam0xNngxTzQxaDdsMEtQZHhNSjBqbWRiaVM0M0tpVHFpNWVVOE9zbkFIZmsxYm45bmkyazB5enM0OVptQzI3enBsdlBUZGJ1c2FKRWZLbmpKS1J3eG9DeFlIQkpYbWdEMGV3OFlhUHFKS3g2aEFrdm16UkNLV1FJNU1Uc2toQ2s1SURJM1BUaXBWOFVhTTFxTGthdFltM0wrVUpoY3BzTDlkdWM0ejdWNXhkZkEyV09QVVJCcTZTUVhWMmRRZUUybUpqSXM4azBTSkw1bnlwbHdyQXFkd0RmZDNHcWR4OEFyalh0TnNKZFExbU8zMUdPQVFQSGFRejI5djVaaFdNcVVpdUZabUFYNzIvYWVmbHhSMERxZXZXbXBXbW9OTXRyZFEzTFF1WTVSRElHS01PcXRnOEgyTmRCNFYvNUYreS8zUDZtdUg4RCtFSXZCT2pTNmZGTUxoWHU3aTY4elp0UDcyVm5DbmtrbFF3WEpQT004VjNIaFgva1g3TC9BSFA2bWdEV29vb29BS0tLS0FDaWlpZ0Fvb29vQUtLS0tBQ2lpaWdBb29vb0FLS0tLQUNpaWlnRGxielM3KzExSzhlSzBhN2d1SlBOUm9uUUZmbEFLc0dJN2pxTTlhait6NmovQU5BcTUvNytRLzhBeHl1dW9vQTRUU05RdU5jdFpMaTAweTZhSko1clppelJENTRwV2ljZjZ6c3lOOWF1TmE2bXlrSnBVd1lqQUx5eEJjKytISng5QWFmOE12OEFrWGIzL3NNNnIvNlgzRmRaUUJWMHUwT242YmEyek1HYUdOVUxEb1NCaXJWRkZBQlJSUlFBVVVVVUFGRkZGQUJSUlJRQnlseHB0L2EzMTJZN043cUtXVXlvOFRvTVp4a0VNdzV6bnA3VXo3UHFQL1FLdWY4QXY1RC9BUEhLNjZpZ0RrZnMrby85QXE1LzcrUS8vSEtwNlhmWEdzUVN6VzJtWFRKSFBMYnR1YUVmUEc1UngvclA3eW11NnJsdmgzL3lCOVIvN0RHby93RHBYTFFCRjluMUgvb0ZYUDhBMzhoLytPVWZaOVIvNkJWei93Qi9JZjhBNDVYWFVVQVpuaDZ3bTAvVHl0d0ZXZVNScFdWRGtMazhEUGZqRmFkRkZBQlJSUlFBVVVVVUFGRkZGQUJSUlJRQlMxcXhmVXRLdXJhTXFza2lFS1c2WjdaOXE1NFcrcFk1MHE0ejMyeXdrZmg4OWRkV2RybmlEVC9EbG90eHFGeXNDTzRqalhCWjVYUFJFVWNzeDlBQ2FBTUw3UHFQL1FLdWYrL2tQL3h5c3F4MTU5VTFXNXNMUFRidTZrdFNWbmxpYUpvb25IL0xNdjVtTi9xbzVIZkZhUzJPc2VOZ0cxRVRhRG9wYkkwK045dDFjTDI4MTFQN3RUL2NRNTlXNnJYVTJHbjIybDJjVnJaMjhkcmJSakNSUktGVlI3QVVBY3o5bjFIL0FLQlZ6LzM4aC84QWpsSDJmVWYrZ1ZjLzkvSWYvamxkZFJRQnlQMmZVZjhBb0ZYUC9meUgvd0NPVWZaOVIvNkJWei8zOGgvK09WMTFGQUhuZW9lSURwT3JXdW4zdW0zZHBKZEhiYnpUR0pZWlgvNTVoL014djlGUEo3WnJXK3o2ai8wQ3JuL3Y1RC84Y3JwdFEwKzExYXpsdEwyM2p1cmFVYlhobVVNckQzQnJsZjdQMWp3UUMybWVkcjJpQnNuVDVaTjExYnIzOG1Sais4VWYzSE9jZEc0QzBBU0czMUxIR2xYR2UyNldFRC8wT3VoMFd5ZlRkS3RiYVFxMGthQU1WNlo3NHFQUS9FT24rSkxWcmpUN2haMWpjeHlwZ3E4VGpxanFlVlllaEFOYU5BQlJSUlFBVVVVVUFGRkZGQUJSUlJRQVVVVVVBRkZGRkFCUlJSUUFVVVVVQUZGRkZBQlhMYWo4VVBDbWs2bC9aOTNybHJCZDdtUm8yWS9LeTlReHhoVDlldGRUWGovaTN3UDRoMXJ4SmYzZGpwN3JwTnhKR3VwUVhkOHYybStTRi9NaEZzdzNDQlF4UFVna01lRWI1cUFOYnd2OFFQQ3ZoalQ3K3hsOFEyZDVjcHFGeGRQRlloNTNSYm1lUzRpeXFLVy8xY2dKT01jTnpnVjZEcDJvVytyV01GNWFTaWEybVVQSElBUUdVOUR6WHo3NHE4QWVKL0hseFBkYUhQcnRxa3Q2RlBuYXBhSkVvaGdXSjBrWlJLeFlTaDBPRll0dGtERUJsYXZiZkF1bVhPamVFZExzYnRycHJtQ0VKSWIxNDNseUNlcGorWEhwanRqdlRFYjFGRkZJWVVVVVVBRkZGRkFCUlJSUUFVVVVVQUZGRkZBSE9hejhSdkRIaDNWazB6VTljc3JHL2RrVVFUeWhXRzhPVkp6MEJDTnllT1BjVmthZDRxOE8rQTlMblhWdkVlbHhmYUx5ZStqeGNxUzBkeGNPMFpBNmtmTmpJR09Eemdacm0vR2ZnWFdyN3hMRmVhUGFhamJSalUxdnJoNGI2MkFtSWhhUGVCSWpNR3dWQUJPQUJnQWNWaWVJdkIvaS93QVpYVjFxV2k3TGFXTjQ3RWZhdFJETE1ZSTVWM1NwR05oQzNFdVQwYi9SOEFmTUtYUWZVOXEwUFhMSHhKcGNHbzZiY3JkMlU0ekhLbWNIQndlRHlDQ0NNR3I5Yzk0QmoxU0h3bll4NjFCUGI2bEdHV1VYTTZ6U09ReCtkbVVsZm0rOWdjQUVEakdLNkdtSUtLS0tBQ2lpaWdBb29vb0FLS0tLQUNpaXVZK0l1NXZERFJDU1NOWjdxMWdrTVRsR0tQUEdycmtISXlwSTQ5YUFJNzd4bExxRjgybWVHclpOVXZFWmt1THlSaUxTMEk2aDNIMzJ6eHNUSjlTbzVxem9QZytQVGJvYWpxRnkrc2Eyd1lOZlRqSGxnOVVpVHBHdmJBNU9CdUxIbXRuVGROdE5Ic1lMS3h0b3JTMGdVSkZCQ2dWRVVkZ0IwcXpRQVVVVVVBRkZGRkFCUlJSUUFVVVVVQWMvcnZnK0xVcm82allYRDZScmFnQmIrM0dkNEhSWlU2U0oxR0R5TW5CVTgxbC84TFMwTFJkU2gwVHhEcnVrV2V2R1h5V2dpbklYY1ltbEJPNERabEZKd1Q2REpKR2UwcnhmeFY4UGRkdWZHR21haG85cHFGcGFXMnFUMzg0aHZiVWVZejI4c1JkTjhiTnVKZGZ2azRYSUdNQUFBOUUxcjRrZUZ2RHNUU2FoNGcwKzN3SXpzKzBLemtPUUVJVUVrZzdoeUIwT2VsYStqYXpaZUlOTHR0UjA2NFM3c3JoQkpGTW5SZ2ZyeVBvZVJYaU9yK0N2R0hpS1hXTlcwWFpGUGUzR3hGbTFBTWdhR0dPSkhsUlJzYkVzVHQ4dk9kb3dCa2oxN3dSRmUyL2hiVDRiKzJ1clc1aFR5ekhmWEszRndRcElWcEpGSlV1d0FZNEpHVFFCdTBVVVVBRkZGRkFCUlJSUUFVVVVVQUZGRkZBQlJSUlFBVVZIY1RwYTI4czBoeEhHcGRpQm5nREpyR1h4aGFNb0l0N3dnOGovQUVjMEFidEZZZjhBd2wxcC93QSsxNS80RG1qL0FJUzYxLzU5cnovd0hOQUc1UldIL3dBSmRhZjgrMTUvNERtcW1yK0kwdjhBU3J5MnRYMURUN21hRjQ0cnVLMUROQzVVZ09Bd0lKQndjRUVjVUFSZkRML2tYYjMvQUxET3EvOEFwZmNWMWxmTi93Q3lGWmZFZndGOE90VHR2aTNyZDU0aDhTWE9zWGR4RjVWbkNrVU1EU3N3SytVaTVNakY1RG5wdkF3TVlyM1QvaExyWC9uMnZQOEF3SE5BRzVSV0gvd2wxcC96N1huL0FJRG1qL2hMclQvbjJ2UC9BQUhOQUc1UldIL3dsMXAvejdYbi9nT2F1YVhyVnZxN1RMQ3NxUERqZXNxRlNNOVA1R2dEUW9vb29BS0txYWxxVU9rMjNuekJ5dTRJQkd1NGtrNEhGWjMvQUFsMXIvejdYbi9nT2FBTnlpc1AvaExyVC9uMnZQOEF3SE5IL0NYV24vUHRlZjhBZ09hQU55aXNQL2hMclgvbjJ2UC9BQUhOSC9DWFd2OEF6N1huL2dPYUFOeXVXK0hmL0lIMUgvc01hai82VnkxYW04Vlcwc0xvc1Y5RVdVZ1NKYm5jdVIxR2VNMTRQK3licG54TzhCYVg0d2orS3ZpUzg4U3pYR3QzRGFRcTJNRVlTMDNsaE0zbEl2enlzek1WUDNjREdNNG9BK2w2S3cvK0V1dFArZmE4L3dEQWMwZjhKZGFmOCsxNS93Q0E1b0EzS0t3LytFdXRmK2ZhOC84QUFjMGY4SmRhZjgrMTUvNERtZ0Rjb3JEL0FPRXV0ZjhBbjJ2UC9BYzFKYStLTFM2dTRMY1IzRVVrekZVTXNKVUVoUzJNL1FHZ0RZb29vb0FLS0tLQUN1WitJZjhBeUw4UC9ZUXN2L1NtS3Vtcm1maUgvd0FpL0QvMkVMTC9BTktZcUFPbW9vb29BS0tLS0FDaWlvTDI4aTArem51cGlWaGhScEhJR2NLQmswQVQwVmgvOEpkYWY4KzE1LzREbWovaExyWC9BSjlyei92d2FBTnlpc1AvQUlTNjEvNTlyei92d2FQK0V1dGYrZmE4L3dEQWMwQWJsRllmL0NYV3YvUHRlZjhBZ09hcTZwNGppdjhBVEx1MnQzMUhUNTVvbmpqdTRMWU04TEVFQjFEQXFTRHlNZ2pqa1VBSHc5LzVGK2IvQUxDRjcvNlZTMTAxZk4vN0l1bi9BQkw4QStCZFhnK0xuaVM3OFQ2OWNhdGN5V29pc0lZb29MYmVkckR5a1hMU0V0SWM1d0dWZU1HdmRQOEFoTHJYL24ydlAvQWMwQWJsRllmL0FBbDFyL3o3WG4vZ09hUCtFdXRmK2ZhOC93Qy9Cb0EzS0t3LytFdXRmK2ZhOC83OEdqL2hMclgvQUo5cnovd0hOQUc1UldmcGV1VytyU1RSd3JLa2tJVm1XVkNwdzJjSC93QWRQNVZvVUFGRkZGQUJSUlJRQVVVVVVBVXRiLzVBdC84QTllOG4vb0pya3JqVXJUU2RQVzV2YnFHenQxVlFacmlRSWd6MDVKeFhXNjMvQU1nVy93RCt2ZVQvQU5CTmVUZkZQUWIvQU1RK0Q3U0RUb2JxZWVLOXRiZ3JaZlovTzJJNFppZ3VQM1JiSForS0FPb1R4RnBVbHBEZEpxZG0xck0vbHhUTGNJVWtiT05xdG5CT2V3cXo5dnRzTWZ0RVdGazhvbmVPSC91L1hrY2U5ZVdXdmh6VmJYYmR6K0ZydnhDc3VudllDMTFsdFBqbmhmelhmYzRoSWhFVWdkVll4Z3NCRXVVWW1tVy9nM3hGRGRUYVEya1JMWnphM0ZySDlwUVhDQzNTTllveVlnaFBtYi9NUXFCdDI3U0R1QitXaGdqMG14OFZhSnFqYmJQV0xDN081VnhCZEkvSjZEZzlUZzQrbFdMcldMR3h0WnJtNHU0WXJlRTRra1p4dFFnNE9UMndhOFI4SC9EL0FNUjIvd0FNb2ZDOXpwdXNRWDhscFoyYlhlcEhURmdzbVFEZE5DMXFSS3hRcmxkK1dKMmRQbUkwYjd3anF0aDRhMEhUclR3dmI2ajRuMHNORjUweUsxbGN4WlpXa2xrZGl3TDU4emJsbkRubklKYW13UFlMclZMT3k4djdSZFF3aVFzRU1qZ0E3VkxIOGxVbjZDbHNOUXR0VXRSY1dreVhFQlprRWtaeU1xeFZoK0RBajhLOGRrK0dKMTNUUEMybjIwR29hVloyc2N0dmVXdDlicUZsZkViU1BNSTJ3L21iTmgydGphN2dkYTZqNFFlRzd6d2I0THVJN2l5akU1dWJxVmJXMWc4bVIvMzhwVWZPK0NXRzNia2dZSXllOUFIb1ZGZUp5ZUQvQUJ0cVhqaWVXNGh1N1hSWnBaUHRHM1VUdGxUN2RidkdWeE1XQSt6ck1DQXFZeXk0SXdUS2ZoOTRzdTlXYUs2bXZEb3Ntb21hS0dQVVNyV3RxSTdvZVN6S3daeVpIaWZPVGdNRTZSNU05TGo2bnNyVElzaXhsMUVqQXNxRThrREdTQjdaSDVpcmZoYi9BSkN1cmY3c1A4bXJ5RDRhK0NmRXVnK0lMSzUxaHA1b0k3RGE4bHhlZmFHRTd3V2dsd1N4T0RKRktlT004OTY5ZjhMZjhoWFZ2OTJIK1RWVEpPbG9vb3BETVR4Wi93QWcrRC9yNWkvOUNySGU4Z2p1WXJkNW8wdUpRV2ppWndIY0RHU0IxT01qODYyUEZuL0lQZy82K1l2L0FFS3ZJdmlkNFAxelYvRTJpNjlvTnZETHFPajJseDlsZWFRS29ta2VGY0gvQUdURjUyZm9PK0tBTzlrMXpUb1VpZDcrMVJKcERER3pUS0E3Z2tGUnp5UVFSanJ4VTBsL2JSVFNSUGNRcExISDV6b3pnTWlaSTNFZGh3ZWVuQnJ4M3cvOE45VDhHV3NsdU5BVHhKYnlXYzFqQkRjelJGWW1OMU5JSkpTN0Q1WkZsUXVWRE5sQjhwcDNpTDRmK0s3alZ0WjF1M2h0cm1mVWx1OVBrczEycEt0cTBHeUVpUm4ybFJKR2o3Y0Fqem43OFVBZXdYR29XMXEwQ3pUeHh0T3hTSU0yTjVDbHNEOEFUK0ZVcm54Vm8xbm82NnJjYXBad2FheUNSYnFXWlZqS2taQjNFK25OZVhmRVhTZFg4V2FQcDl3K2c2dGFQYlFTMngwNjQ4aVhsdksvZlloZVRKR0RqNWdlRzQ1elhLdy9EL1ZJL0M3NlhEcFZ3NnJxa2R5OTI5aUJtTVJoUDlWSUNXd1pXUEFQQ05TOGdQZTdmeFZvMTVaaTd0OVZzN2kyTWlRK2JET3JydmNnS3VRZXBKSEh2VnUwMVMwdmxrYTN1WTVsamthSnlqQWdPcDJzdjFCQkgxRmZQVWZnYlhMSHc3TEVOQ3VMd1MzNlRFTFlRZ0ZoWlR4bkVKS2ZLSFpRSFlBbnJqZ1Z1YUo0RGhzTk91OVB2dEd2Ynl6L0FMS05xL2tXQVNmekpTaDJoenhJNnNISWtPTUFqSnprbDl3N0hzcTY1cDhsalBlcmVRbTBnOHd5emJ4dFRZU0h5ZTIwcWMrbUtXMTFpeHZyeVcxdDdxS2E1aWpXV1NKR0JaVllzcWsrbVNqai9nSnJ4YUR3WHExOTRaOFZXK3A2RExwSGlDOXNsamltMDJDTHlHZ2pPUkdySXpZa2tMTnZCeDk3Q2xnb1k5QjRQK0d0MTRkK0sycDZteVdzc0VsakM1dlBzckI1WlhtdTJrdys4amQ4Nms4ZENvQUZIVU9qUFZhSzh2OEFpbHBIaTNYTldzRzBHenVJNDdZcVZ1RnZCRUE0bWpaaVZFcThHTldBeXJrbktrS0RrNVZ2NEQ4VzJVdmhwNEh2UEx0N1QvaWJwSnFSYzNWdytkaEc1amdSTmxqZ2dFTUFBMjNBT2x3UFlyaTRpdFlYbW1rU0dLTWJua2tZS3FnZFNTZWdwcS84aHJSZit2cHYvUk10ZUdlSVBoUDRubThNMzFwWk5kejNGemJmWjJqdU5UYVJXVnRQWkhCRHVSemNiRG4xNTZacjNOZitRem92L1gwMy9vbVdtQjJkRkZGSUNocUd2YWJwRnhCQmZYOXZaeTNDczBTenlCTjRYRzdHZlRjdjUxZFIxa1ZXVmd5c01obE9RUjYxNFA0cThFNjU0bzFyVjdpVFQ3NlhjMDdhZmMzTDNHYmRXRWk3VVJicFVITUVaR1VHZk5qeU91UFJmK0VMMW04QW5pOGRlSXROaWtBZGJPTzEwN2JBQ01oQnZ0R2JBNmNzVHgxTkEyYmVvZU52RHVrM2IydDlyMm1XVjBtTjBOeGVSeHV1UmtaVXRrY2MxeXZ4QStJWGhFNlRhMjB2aTd3L2F6UzNGcmR4cmM2ckJGdmlTNFVzNjduR1IrN2NaSGRTS2Q0NzhDemExWStHTE1YbDdOZHc2a2p6YXhISENMbFFJSmdKVzJ4aVA3eFVFYk5wemdqRmNuNCs4RitLcGRXTW1sLzJiSThkamJRelh0NHkya1VqZzNHTmc4bVlaM3RIbEF2TzdnaWxjRDFlejhYYUhxV2twcWxuckZqZTZhNnU2WGR0Y0pMRXlvY09ReWtnZ0hnNDZHcHRVOFNhVG9rTWN1bzZwWldFVWhLbzkxY0pHckVkUUN4R2E4SjFyd1ZxV3I2UGF4ZlpOWWpjd1h5TGEyU3lSaVh6WjJ3cERLRVJXQUJKZHM0Q2pBNU5kZkg0Wm44TS9EUFVOSGwwUzV1cnkvaXVURGFXb1c1VzJMcHRWQysxUm5wa2dZem5HUnpUWWtkeEw4UXZDMEZvbDFKNGwwZU8xZVh5RW1hL2lDTklSa0lEdXdXeDI2MWEwUHhab2ZpY3pEUnRaMC9WakNGYVVXTjFITjVZYk8wdHRKeG5hMk05Y0gwcnpMeGpvTi80dTB2d3piNmZwMTdwRVduM1BtWG0rRjQyY2ZacEZ3RmpZYmdUd1NUeGxjQTVOSit6L3dDSHRXMEc2MTQ2dFpYbHJKSVk0YmRyanpDR3Q0bWZ5eGwwWEJ3NTQ5emtDbjFhRHBjOWtySThYZjhBSXE2eC93QmVjMy9vQnJYckk4WGY4aXJySC9Ybk4vNkFhUUdMTk5IYlF2TE5Jc1VTQXM3dVFGVURxU1QwRk9WZzZobElaU01nam9hNWY0amFQcWZpUFFZdEkwMUlnbDljeHgzYzg0REpGYmpMdmxNZ3Z1MmlQQVAvQUMwejJyeWV6OEwrTHRPOFFSYUNxMzBqYVRZV1VkcHFVTjRZcmFPRkx5WWxuajM1ZG10MUVlTU1jZ1p3RHVwWEdlL3ZOSEc2SXpxcnlIQ0t4d1dJR2NEMTRGVTdqWHRPczVuaG52WVlaVWVPTmxkd0NHa09FQjkyUEFyeFR3RHBYaXUwcy9DK3Z5YU5xMS9hUjIxckpKcDhsOURMZE5NYldaWnJnR2FaUUZjeVJEYVdCR3duYUtyZkVMd0hxV3QrSTVKSHN0UWRidWFhN2E1a3RmUGFIOTFiQklNUmNZSHpnRUVqS055U2MxVXZkZGhMVkh0ZXFlTU5DME81Z3Q5UjFteHNaNXY5WEhjWENJemNFNUFKNllVOCsxUzNYaWJTYktGcFo5UnRvNGx0bXZTNWtHM3lGNnlaL3U4OWE4RjFyd0xxMS9kV0Z6L1pFOXJCSHB0cmI3ZjdQanVHYlltNThBb1NyWmtJdzJNbFQwcVRVZmg3cTEvcUhoNnl2TkZ1b2JlMXRiZUthN2p0WXBoR0lvYnRjNURISUxHSStYdElPNEErbElEMys4MVMwMCt6ZTd1Ym1PQzJqWGMwc2pBS285U2FTODFheTAveWZ0TjFEQjV6bU9QekhBM01GWnlCOUZWajlBYThjdXZDOTVONGZzbXNmREF2TmZqMUM0dTdXTzR0RmdzL0xablFyTUhPVWpaV0xCUnVZSGFjSEZQVDRjeTYxcDNodXhqdGI3U2xoKzFSNmpGZDJ5S2tzc2lLenlPSTJLbFcrWkJ0ZkFEa0E4VUFleDJPb1crcFFtYTFtU2VJU1BFWFE1RzVHS01QcUdVajhLbnJnUGhKNFd1dkIvaC9VMW50SUk1SkwrOGtTQzF0ekM3cjlwbUtuNW5JSVpTcFhwZ0VjOTY1SFgvQ0hqald2RjF6TkZEZFdXbXpUN1ptajFMYUpJZnRGc3k3Y1M1QkVTVEFnS21DU0FYM0ZxQVBiYVkwOGNja2NiU0tza21kaUZnQzJPdUIzeFhrZG40RDhTVGE5ZkpkaThYUWJqVVVsdG9CcVJKdHJaVElIalloZ3g4eGlzbUFUZ01FeU5vRlMrRFBBWGlIUi9GUGgrNnZUTk5hVzFtRGNQY1hwbllYRFFiSkNOekU4c0Y2Y2QvV2dEMkx3ei95SE5UL0FPdmUzLzhBUXBxNmF1WjhNLzhBSWMxUC9yM3Qvd0QwS2F1bW9BS0tLS0FDaWlpZ0Fvb29vQXA2d3JTYVBmS29MTTBFZ0NnWkpPMDF5VU40aXd4Z3BPQ0ZBLzFEK24wcnVhS0FPSiszUi8zSnYrL0Qvd0NGSDI2UCs1Ti8zNGYvQUFydHFLQU9KKzNSL3dCeWIvdncvd0RoUjl1ai91VGY5K0gvQU1LN2FpZ0RoTGJXTFM4ak1sdTd6SUhhTXRIRTdBTXJGV1hnZFF3SVBvUWFsKzNSL3dCeWIvdncvd0RoVmo0WC93REl0WGYvQUdHTlYvOEFTKzRycnFBT0orM1Ivd0J5Yi92dy93RGhSOXVqL3VUZjkrSC9BTUs3YWlnRGlmdDBmOXliL3Z3LytGYVBoUE1sL3FrdXlSWTJFUVZuUXJuQWJPTWozcnBhS0FDaWlpZ0RFOFdodjdOaVlJemhiaU5qc1VzUU4zWEFyRSszUi8zSnYrL0Qvd0NGZHRSUUJ4UDI2UDhBdVRmOStIL3dvKzNSL3dCeWIvdncvd0RoWGJVVUFjVDl1ai91VGY4QWZoLzhLUHQwZjl5Yi92dy8rRmR0UlFCeFAyNlArNU4vMzRmL0FBcU8zMWkxdTBaNFdrbFZYYU1za1RrQmxKRERwMUJCQitsZDFYTGZEdjhBNUErby93RFlZMUgvQU5LNWFBS1gyNlArNU4vMzRmOEF3byszUi8zSnYrL0Qvd0NGZHRSUUJ4UDI2UDhBdVRmOStIL3dvKzNSL3dCeWIvdncvd0RoWGJVVUFjVDl1ai91VGY4QWZoLzhLTGFUN1ZyV2tlWEhNZGx3ek1XaVpRQjVVZ3lTUjZrZm5YYlVVQUZGRkZBQlJSUlFBVnpQeEQvNUYrSC9BTENGbC82VXhWMDFjejhRL3dEa1g0Zit3aFpmK2xNVkFIVFVVVVVBRkZGRkFCV1g0cWplYnd6cTBjYU5KSTFwS3Fxb3lTU2h3QUsxS0tBT0orM1Ivd0J5Yi92dy93RGhSOXVqL3VUZjkrSC9BTUs3YWlnRGlmdDBmOXliL3Z3LytGSDI2UDhBdVRmOStIL3dydHFLQU9KKzNSLzNKdjhBdncvK0ZIMjZQKzVOL3dCK0gvd3J0cUtBT0Z0OVh0YnVNdkEwa3libVRja1RrYmdTQ09uVUVFZmhVbjI2UCs1Ti93QitIL3dxL3dERHNGZkQwb1AvQUVFTDMvMHBscnA2QU9KKzNSLzNKdjhBdncvK0ZIMjZQKzVOL3dCK0gvd3J0cUtBT0orM1IvM0p2Ky9EL3dDRkgyNlArNU4vMzRmL0FBcnRxS0FPWThLa3lhdHFVb1NSWTJoZ1VNOGJMa2hwU1FNajNINTEwOUZGQUJSUlJRQVVVVVVBRkZGRkFCUlJSUUFVVVVVQUZadDE0bTBpeXVHdDdqVmJHQ2RUaG9wYmhGWWZVRTVyU3I1MitLbmd2VjQ5YTErOFN3MUJvYitSVGJyYmF0Y21LNGRsMkJQSmhUNWVFQk80YmZtKzhld0I3QjRBdDVOSjBlV3p2QUxlNm0xTFVyaU9GMkc1NDJ2SlhWZ080S3VoL3dDQkN1cHJ5dlVkSjhUNnhMcEsyQW10cnJ3dEVyL2Fyd2ovQUltZDFzVldoRGJWekcwWmtEU0JRTjdxVkh5RVYwaWZFNndoaHQ1dFIwM1dkSWdtVU1KcnpUcFJHaDdxN0tENWVEa1pmYURqSUpCQklCMkZGVXROMXpUdGFpOHpUNysxdm8vNzF0TXNnL01HcnRBQlJSUlFBVVVVVUFGRkZGQUJSUlJRQVVVVVVBWjE3NGswblRaekJkNnBaV3N5akpqbXVFUmdEME9DYXlmQkNIVGRQbmd1U3NNMTFxVjlQQWpNTXl4dGNTT3JMenlDckE4ZGpYa1h4dThLNjFEZWVKZGR0dE4xQ2NTMm1ZSTdIVnJrTGN5cWhSSXhEQW1RellYcmtjL2VycUx2dzk0ZzFxejBUUnRQODJ6bjhMaGJvMzEwRHN1YnBZeUlyZEpOaTdvOXJuekhSZU9FNU84QTZBZXVVVm5lSDlXZlhOSmd2SkxHNjAyVjhySmFYaWJaSTJVbFdCN0VaQnd3eUNNRUVnMW8wQUZGRkZBQlJSUlFBVVVVVUFGRkZNa2xTR05ua2RZMFhrc3h3QitOQUQ2NW40aC84aS9EL3dCaEN5LzlLWXFiY2ZFVFNtdS9zZW1DNDErODd4NlZFWmtRK2p6Y1JJZlpuQjlxcWFoWStJL0Z6VzhOeGJXV2g2WkhjUTNFZ2trTnpjeStYSXJoUUYycEh5bzUzUDM0b0E3T2lpaWdBb29vb0FLS0tLQUNpaWlnQW9vb29BS3pMdnhQbzloY1NRWE9yV050UEg5K09hNVJXWEl6eUNjamdnL2pXblh6bDhXUGgvcW45c2VKTDBhZnFFc0d0VHhoWXJiVjdueXAzYU5ZTm5sUXgvTDhrUUxGeGo1dnZIb0RxQjdYNE5oZlRkTWEwdXNRWE1sM2VUSkM1RzVrTnc3QmdQVERLZnhGZEZYbFdxYVI0ZzhTWEdsaTJXNml2UEN3KzBKZVhKMkMvdk5nVXhCOWk3NGpHOGlzd1VLV2NZNVE0OUcwUFZ2N2MwcTN2ZnNsMVlOS0R1dHIySXh5eHNDUVZZZlVIa1pCNmdrRUdnQy9SUlJRQVVVVVVBRkZGRkFCUlJSUUFVVVVVQUZGRkZBQlJSUlFBVVVVVUFGRkZGQUJSUlJRQmg2djRKMEhYZHpYbWwyN3pIcGNScjVVNis2eXBoMVB1Q0tvdytFTlMwcUVSNlQ0bXZvNGwrNURxYXJlcVBxN1lsUDR5VjFWRkFISnc2dDRzMHVSazFMUkxYVllSOTI2MGU0MnUzKzlETGpiK0VqVStQNGxhSEZjSmI2bE5Ob055NTJySHE4TFd3YytpdXcyT2Y4QWRZMTFOTW1oanVJbWpsaldXTmhoa2NBZ2ozQm9BSXBrblFQRzZ5SWVqS2NnMCt1WHZQaHZvVXpiN1MzbDBhNEJ5SjlKbmUwYlBxUkdRcmZSZ1I3VWcwYnhScHNSRm5yOE9xYlI4cWF0YUtHYjJNa08wRDY3RCtOQUhVMFZ5bHY0czFpeFhiclhoaTZoY2RaOUtrRjdDZnB3c240ZVhYQWZBcjlydjRjL3RBM1hpU3c4TzZ0OW0xZncvY3pRWDJuYWhpR1pVU1F4aWRRVHpHeHg4M1lzQVFEUUI3VlJXVi93bGVpZjlCalQvd0R3S1QvR2ovaEs5RS82REduL0FQZ1VuK05BR3JSV1Yvd2xlaWY5QmpUL0FQd0tUL0dqL2hLOUUvNkRHbi8rQlNmNDBBYXRjdjhBRDFtYlI5UUxFay8ydnFBNS93Q3Z1V3RDZnhWcERReUNIV3ROU1VxZGpQY0lWRFk0Skc0WkdhK2ZQMk92aTk0MzhaYUw0emI0azZab2ZoVDdEcjkzYTJVZHRjTURkTjVydk5LdTl1WXR6aFZZRG5Cb0ErbTZLeXYrRXIwVC9vTWFmLzRGSi9qUi93QUpYb24vQUVHTlAvOEFBcFA4YUFOV2lzci9BSVN2UlA4QW9NYWYvd0NCU2Y0MGplTHREUlN6YXpwNFVESkp1azQvV2dEV29yeEQ0YmZ0WStIUGkzNHQ4VzZGNFcwWFc5VGZRWm80VXVmc3doaXZ0d2JNa1RTbFFZd3lsZHhQUFVER0NmUllZUEYyc1JscnE1c1BEcU4waXMxTjVNQjZtUndxQSsyeGg3bWdEcHBwNDdlTnBKWkZpalVaTE9RQVB4TmMwdnhFMHkvbGVMUm9ycnhDNm5EU2FaRnZnQjdqemlSSG4yRFpIcFRyUDRkNlJISjU5K3MrdTNaT1RjYXRLYmc1OVZRL0luMFJWRmRMSEdzU0tpS0VSUmdLb3dBS0FPWGpIaTdXcEdNaHNmRGRwL0NxWnZMbGg2a25iR2g5Z0pQclRvZmgzcGt0NTlzMVdTNThRWGZadFVsOHlKZmRJQmlKRDdxZ1B2WFVVVUFNaGhqdDQxamlSWTQxNENvQUFQd3A5RkZBQlJSUlFBVVVVVUFGRkZGQUJSUlZPOTFuVDlOa1ZMdSt0clYyR1FzMHlvU1BVWk5BRnlpc3IvaEs5RS82REduL0FQZ1VuK05IL0NWNkovMEdOUDhBL0FwUDhhQU5XaXNyL2hLOUUvNkRHbi8rQlNmNDFVMWJ4VlpmMlZlZjJack9ralVmSmY3TjlxdVZNWG03VHMzNGJPM09NNDV4UUJINEFZdG9NeFlrbjdmZURuL3I1a3JwSytiUDJOZmkxNHo4YmZEN1diLzRtYWRvbmcrOGoxbTdndExDQzVQbU9xeXNaSkczdDkweUZsVEhVSm5rRVY3OS93QUpYb24vQUVHTlAvOEFBcFA4YUFOV2lzci9BSVN2UlA4QW9NYWYvd0NCU2Y0MGY4Slhvbi9RWTAvL0FNQ2svd0FhQU5XaXN0ZkZHak93VmRYc1dZbkFBdVVKUDYxcVVBRkZGRkFCUlJSUUFVVVVVQUZGRkZBQlJSUlFBVVVVVUFGRkZGQUJSUlJRQVVVVVVBRkZGRkFCUlJSUUFWNS9MNEY4TitFOVEwNjMwVFFOTTBpRmtta1pMRzBqaERNREdBeDJnWlB6TjE5YTlBcm0vRXYvQUNHTk4vNjRULzhBb1VWQUZQeWsvdUwrVkhsSi9jWDhxOGorSU1keTNqTFhmS1hWenFEYVRaalJqWi9hUEpGejV0enVKMmZ1eC95eTNiLzRjWjRxcmNhbDR3MVhXOVljVGFrTGV3ZDcrMXQydC9MQWFDNUE4Z0ZZbDNpV0V1TUY1TTVWaHQ2VUFlemVVbjl4ZnlvOHBQN2kvbFhpdW1ueHZkK0lnZnRlcGFUQnE4RnZleXVrQ1NOWjcvdDcrU1BNUjFWbFZMVkc0UFArOVV0eDRnOFlYYTJMVFM2cEhlU1Q2WUgwK0hUayt6K1N4dG1ubWFUYUdWZ3pUS1FHSUFIM1A0Z3dQWmZLVCs0djVVZVVuOXhmeXJ6dnhXengrSk5VYSt0OVp1aVlMYzZURnBiU3J1Zkxid0dVaEZiZHR5WkNCdHgyeldPdXJlTk5RdmpheDZocVZ0OW91RVc2Y2FmRVA3UC9BTkoyN0lTMFJEcVlza3MyL0dBY2pPS1FIcm5sSi9jWDhxUEtUKzR2NVY4OXkzbmpyVGRhZldaN3pWSkdhR09LVHpvRUVNU3JCT0drVkFnRzdjRmJIT1dJR01ZRmJsbDQ0OFRwYjNLVzk3cVdzUmZhSkxhMXVwTk1VU095M2NhbmVFaVVMaUl2eVZVRUFrY2lnRDJqeWsvdUwrVkhsSi9jWDhxOEdYeEo4UTdlSHd3c2wzcWs5MWRRV0VsNmo2ZkVxRTNFaFdjZkpBY2VVdUR5eWJUZ256QWNCOGV1K09kTjhLN2JPLzFpNzFTMzBvckZEYzZkR3dkaFpNNW1adktHWlZ1QUVDNXdRQmxXSjNVZExqNjJQYnIyTlUrek9xaFhXNWdLc0J5TXlxRCtoSS9HdTRyejZLR2EyMG5UNHJpNWt2SjFsdGhKY1RLcXZJM21KbGlGQVVINkFDdlFhQkJSUlJRQVVVVVVBRkZGRkFCUlJSUUFVVVVVQUZGRkZBQlhGckdqWDJvT1VVdTF5NExFY25Cd1AwcnRLOCsxd1ROcGZpQVcrL3ovQVBTZkw4dk83ZGc0eGp2bWdhMVpvK1VuOXhmeW84cFA3aS9sWHo1cE0vamJSWU5HODJIVnJwZERzNTdhRVNHUmpmVFRRbDR2TjY3dkxKaGozdG5rdVQwclowcndqclgyT3cwZlhVdnA3blQ5V2hBdW9OUnVKQkxhU3F6c0drQVRjRmZjT1J3QW96VDYyRjB1ZTFlVW45eGZ5bzhwUDdpL2xYa2NPc2F4SDROOFJlSDlPKzNqeExOcVY3YldjbHpGTUZnaWt1bVdPWHppakx0U05nd3huaFJ4MnJpL0VTK0svc3AwdTZXL3M3L1M3QzhzNHBZL3R0MHM4bTZON2Q0cEl0dTUvTFpSdmRjYmxmSTROSUQ2UThwUDdpL2xSNVNmM0YvS3ZFdkZVV3RYRVkxSzZHcXd0ZEdka3NkdHk2SXlwRkdrWWEzSUtTRXh1d1lxVU85dU9sVFhsOTQ5dUp5Ylc1MUhSMFdXSXRicmF3emsrWmN3eHVHWm8yenNqYVJzcVFNcm5rQWduV3d1bHoyZnlrL3VMK1ZIbEovY1g4cThYaThWZU5Hc1p0TnZGMUNTN2VWNFk1bHNkcGtnVkxsVElYUkFxc3pSeEhqSExEYUFDQlZiUjlROGV4dE14bjFDSzJ0cnEzVVdyV2lNTGhKYjU0cEN6TWhmQ3c0YktrWXdDVGpJSjFzUHBjOXdhR05sSU1ha0hnZ2dWdCtGZitRQmFEc29aUjdBTVFCK1ZlVmZCNjc4UlRlSHBJZkU2eXg2akI1U29qTCs3OG94SVZLdVJ1Wmp6djNjaHd3QXhnbjFYd3IvQU1nRzIvNEgvd0NodFFCclVVVVVBRkZGRkFCUlJSUUFVVVVVQUZGRkZBQlJSUlFBVVVVVUFGRkZGQUJSUlJRQVVVVVVBRkZGRkFCWE5lS0dFZXFhWkk1Mm9ZNW93eDZiaVl5QjlTRmI4alhTMUZjVzBONUMwVThTVFJOOTZPUlF5bjZnMEFjcjVpLzNoK2RIbUwvZUg1MXQvd0RDTGFML0FOQWl3LzhBQVpQOEtQOEFoRnRGL3dDZ1JZZitBeWY0VUFZbm1ML2VINTBlWXY4QWVINTF0LzhBQ0xhTC93QkFpdy84Qmsvd28vNFJiUmYrZ1JZZitBeWY0VUFZbm1ML0FIaCtkSG1ML2VINTF0LzhJdG92L1FJc1AvQVpQOEs1cndCNGQwcTQwbS9hWFRMT1JsMWJVRUJlM1FrS0xxVUFkT2dBQS9DZ0NTOHQ3YlVMV1cydW9vYm0ybVVwSkRNb2RIVWpCQkI0SVBvYWkwdlRkUDBPeGlzdE90YmF3c29SaU8zdFkxampRWnpnS29BSFBwWFRmOEl0b3Y4QTBDTEQvd0FCay93by93Q0VXMFgvQUtCRmgvNERKL2hRQmllWXY5NGZuUjVpL3dCNGZuVzMvd0FJdG92L0FFQ0xEL3dHVC9Dai9oRnRGLzZCRmgvNERKL2hRQnpkOHlzTFpBUVdhNmdBVUhrL3ZWUDhnYTdpcU5wb2VuV0UzbTIybjJ0dExqRytHRlZiOHdLdlVBRkZGRkFCUlJSUUFVVVVVQUZGRkZBQlJSUlFBVVVVVUFGY1lzaXJlWDZGZ0dXNWZLNTVHVGtmcFhaMVR2TkcwL1VKQkpkMk50Y3VCZ05OQ3JrRDB5UlFCem5tTC9lSDUwZVl2OTRmblczL0FNSXRvdjhBMENMRC93QUJrL3dvL3dDRVcwWC9BS0JGaC80REovaFFCaWVZdjk0Zm5SNWkvd0I0Zm5XMy93QUl0b3YvQUVDTEQvd0dUL0NqL2hGdEYvNkJGaC80REovaFFCaWVZdjhBZUg1MGVZdjk0Zm5WYndCNGQwcTQwR1ZwZExzNUgrMzNpN250MEp3TG1RQWNqb0FBSzZUL0FJUmJSZjhBb0VXSC9nTW4rRkFHSjVpLzNoK2RIbUwvQUhoK2RiZi9BQWkyaS84QVFJc1AvQVpQOEtQK0VXMFgvb0VXSC9nTW4rRkFHR1pFVUVsbEErdGJYaFgvQUpBRm9lekJtSHVDeElQNVU5ZkRHakt3STBteEJISUl0ay93clNISEE0RkFDMFVVVUFGRkZGQUJSUlJRQVVVVVVBRkZGRkFCUlJSUUFVVVVVQUZGRkZBQlJSUlFBVVVVVUFGRkZGQUJSUlJRQVVVVVVBRkZGZUhhMGZGV3BhbHFUWHV0VytoMjMvQ1JDd1pyYnpuTU1VbHFxMjVFZ2tRQWxwWXlSakc5dXBIVUdlNDF5L3c3VXJvK281R1ArSnZxSi84QUp1V3ZFOVc4VGFuclhpelc3UVNheHExdmF6MnJ4cHBPczNzTFRRL1psWnBQTHRGSmlWMmtCSHpFRURvRFYrWFZ2R0gvQUFqUGh6VVRKcVFpay9zdTNWTE9hR1VNd2xRU3ZLWnBFWXl1KzRkQ0NvWExaTEFBdkkraGFLK2Yvakg4Uk5mMFdOTkxoMVNPd2E0MG90TkZOZVc5dmVDUjJsQWRWRWNxdnRXTm1PMlJOb1VuTmVsZkNIV29kZjhBQjZYMXZmM0dvUVR6UE5GSmRTQjVCSEppU1BkZ0RibEhWd3Y4SWNEdGdDMTFRYkhiVVVVVUFGRkZGQUJSUlJRQVVVVVVBRkZGRkFCUlJSUUFVVVVVQUZGRkZBQlJSUlFBVVVVVUFGRmZQNFR4ZHJGemJhamVlSW85RUZ4cjkvWVR0YnJJNHRpdVZnS2t5S3BVZlpvMXdWd3pPeElPNGl1WjF2eERyL2luVi9FRVZqY2F0ZkNPL1o3ZE5MMXErUUxBMXF5eHN5MnFueTFhVXBNQXpFRlRqK0hsRDIzUG9MNGZncm9NMlJqL0FFKzkvd0RTbVN1a3I1NDFUWGZGVnpINE4xaUdYVlZ0TlJ1TEJZTGV6a3Qzajhzd1NNZDVrbFV0S3pFbGlWQzRDakpJeVUrS1h4SzhRYVhyZHpwQjFVYWRwN2FPanlNMXpidzNjTTRpdXBwVzJDS1FPQWtVQU8yUlF2bUoxM1UrNGo2SW9yai9BSVUzVFhmZ3EwZHJtZTRiYzdEN1ZPSnBZMFppOGF1d0FHN1l5RWdaQzV3Q1FCWFlVd0NpaWlrQVVVVVVBRkZGRkFCUlJSUUFVVVVVQUZGRkZBQlJSUlFBVVVVVUFGRkZGQUJSUlJRQVVVVVVBRkZGRkFCUlJSUUFVVVVVQUZVN3JSN0c5dHJ1M3VMT0NlQzg1dUlwSXd5emZLRitZSHJ3b0hQb0t1VVVBWjYrSDlMampsalhUclZVbGpFVWlpRmNPZ0FBVThjZ0FBWTloWEorRGZDK2lhenAxN05mYUpwdDFMSHFONWJvOGxsRVNJNDdoNDQxKzcwVkZWUjdBVjI5MUpKRGJTdkZFWjVWUXNrUVlLWElIQzVQQXpYei93RHNlL3RFMm54KzBmeGkxajRWMTN3N0ZvdXVYZHRPK3NwRW02ZDVua2FKUWp0OHlCbDNaNkZoak5BSHVscjRiMG14dDNndHRNczdlQjhib29yZEZVNE9Sa0FZNFBOVDZmcGRucFVja2RsYXcya2NralN1c0VZUU03SExNUU81UGVyVkZBQlJSUlFBVVVVVUFGRkZGQUJSUlJRQVVVVVVBRkZGRkFCUlJSUUFVVVVVQUZGRkZBQlJSUlFCUXV0QTAyKzArNHNiaXd0cDdPNGRubXQ1SWxaSkdKM0VrRVlKSjV6NjBIUU5NYUtlSTZkYStYY0FDWmZKWEVnSFFOeHowSFdyOVV0YXZwdEwwZSt2TGV5bTFLZTNnZVZMTzNLaVNkbFVrUnB1SUc1c1lHU0JrOGtVQWNuNFI4SzZIckdreVhGN29tbVhVNHU3bUVTU1dVUk94SjNSRis3MENxQVBZVjFGdjRjMG16dFRiUWFaWncyelNMS1lZN2RGUXV1TnJiUU1aRzFjSDJIcFhpZjdIUDdRVnIrME40RDFuVjlQOE1hMzRlc2JIVjdxMkVtdFJ4eG1lUXl0STZvRmRqOG05VlluSHpaQXpnMTc3UUJWMDNTckxSclVXMWhhUTJWdnVMZVZieGhGeVRrbkFxMVJSUUFVVVVVQUZGRkZBQlJSUlFBVVVVVUFGRkZGQUJSUlJRQVVVVVVBRkZGRkFCUlJSUUFVVVVVQUZGRkZBQlJSUlFBamZkUDByZ05JaE54cE5sTEpjM2JTUEFqTXh1cGVTVkJKKzlYZlA5MXZwWGszaUx4SS9oSDRhU2FyREUwOTFEWXhpM2hXTnBESk15aFkxQ3FDelpZcndvSjlCUUIwMzJNZjg5N3Ivd0FDcGY4QTRxajdHUDhBbnZkZitCVXYvd0FWWGwvaHY0eTU4T2o3Y2pYV28ya2N5WExYVVQyRWp5eHpSb013eUlHUXVrcVNZSUhERGptb3JENDFYMEJ1SU5RMDIwTXR0ZHJEUEpIZUVFQ1crbXRZdkxqOHZNbTN5Z1c1WGpwazhVQXRUMVg3R1A4QW52ZGYrQlV2L3dBVlI5akgvUGU2L3dEQXFYLzRxdkRvZmk1cmVrYUpmQzl2bTFMVjd1eGdld1N6dEV1ME04c25sbVdBVys1M2hYY0g4dDA4emFqY3R6aUc1K01PdTZ0cHNsOVpOcUZxTEhSaE5mUngyc2NiVzkwczhrTWp6UnpSbVFSZ3g3aXFnTUV5Y1VBZTcvWXgvd0E5N3Ivd0tsLytLcWpwSGhYUy9EOGR4SHBsc2RQanViaVM2bVcxbGVNU3pPY3ZJMkR5ekhrazhtdkYvRXZ4UTEyMThTWGxzTDY5YU8ydTdXSlRwYUF3TjVzVWFrY1dVN0ViM2M4c000QUdjR3JuaUh4OXExdHJYbHhhczMyZGJhM1VDYThnczM4NG96dUNzc2FrdHQybkcwWUErNktQTUQycjdHUCtlOTEvNEZTLy9GVWZZeC96M3V2L0FBS2wvd0RpcThjdVBHbmpDMzAyYllpVGkwMGczaHV6ZHg3WlQ1MldiS0syZGlLRnp4a2x6amdFcjRxOGJlSU5CMVN4MGw3NjZGekpZWExMTGJ6V3pRU1NnTzBLdE5KRW56N1ZPNzdvR1kvVW1nWjdGOWpIL1BlNi93REFxWC80cWo3R1ArZTkxLzRGUy84QXhWY244TWZFTSt0NkxxRWw1SmNNYmU5a2lWN3lTQjM4dkNzdVdoWW9lRzdIMnF6NEs4Y0h4Y2JoekJhV3NTN21pUkwwU3o3Ukk4Wk1zZXdlV2NwMHkzY1p5S1pKMGYyTWY4OTdyL3dLbC84QWlxMC9ESWFPK3ZZL05tZEJIR3dFc3JQZ2t2bkc0bjBGZWFhTDQ4MUdUeDFxR2ozZHJETHAwbXB5V2RuZFJ6WWROdG5GUHRaTm1DRHVmNXQyZWd4aXZUUER2L0lVdnY4QXJsRi9ONlF6b2FLS0tBQ2lpaWdBb29vb0FLS0tLQUNpaWlnQW9vb29BSzUveFZ1WjlQakVrc2F0STI3eXBHUW5DbnVDSzZDc0R4Ui94OGFiL3dCZEgvOEFRRFFCay9ZeC93QTk3ci93S2wvK0tvK3hqL252ZGY4QWdWTC9BUEZWNXg4VVBGdXI2YnIwV2s2WmR6V3FTYWJQY00xckNqeSthQXpSakxBaGR3amtBNFBPSzQ3eGY4VHRkdGZEK20zbHRxVjJGdUxiVnA0NVk0QWp5cmJ2R2tVaEN3eWZJY2xod0FRNHkxSytseDIxc2U4Zll4L3ozdXYvQUFLbC93RGlxUHNZL3dDZTkxLzRGUy8vQUJWZUR0OFI5Yi9zdkkxU1pObW9xcnRkU3BBM2tpeWFSOHZKREdBdS9hY2xmYlBOYWVsZU52RkVpUnRidXQvRGNYOXBiay8yaEJLWUZMa3NkeUEvZnlpZ1k0RzQrbVgxc0x6UFdOSjhNNmRvTnExdHBzTDJGczBzazdRMjB6eHFaSkhMeVBnTjk1bVptSjdrazFkK3hqL252ZGYrQlV2L0FNVlhqZW9lTnZGR2orRDczVWJ5ZVZKMnZoYW9sak5GUEpBeTNMUnVXRHdCVlRadDVKUHpiY1kzVnRlQXZGMm9hbDQybHNibTV2TG0xa2l1blJwcDdPU1A1Wmw4b3FJVzNxZkxQSWRSejZZb1dvUFE5Syt4ai9udmRmOEFnVkwvQVBGVWZZeC96M3V2L0FxWC93Q0tybTdueDE1ZmpKdERqaHRQS2lXQXkzRnhlaUp5WldrVlZpajJuekNERVFmbUhYQXppc2Y0a2ZFSFVmQk90MmoybHREZjZkRHBHb2FqZTI3emVVK0lEYmtGVzJOODIyUjhLY0E1R1NNVUI1SGZXc2JXK3FhZVVudUR1bTJzSHVKR0JHMXVDQ2NWMmRjZkh6cVdtbi9wNEgvb0RWMkZBQlJSUlFBVVVVVUFGRkZGQUJSUlJRQVVVVVVBRkZGRkFCUlJSUUFVVVVVQUZGRkZBQlJSUlFBVVVVVUFOZjdyZlN1QzBpR080MFBUUkxHc2dXR0p3SFVIREJRUWZxRFhmSG5pc0NId1hhVzhLUlIzVjZzYUtGVlJOMEFHQU9sQUdIY2FEcGwzT1pwOU90SnBpL21HU1NCV2JkZ0x1eVIxd0FNK2dGT0dpNmN0d2x3TEMxRnhHek9rdmtydVZtT1dJT01nazlmV3R6L2hFTGIvQUovTDcvdjkvd0RXby80UkMyLzUvTDcvQUwvZi9Xb0F3YlhRZE1zWm1sdHRPdExlVm44MW5pZ1ZXTDRJM0VnZGNFalB1YWxYVGJPT2FlWmJTQlpaeGlXUVJxR2tIb3h4eitOYlAvQ0lXMy9QNWZmOS92OEE2MUgvQUFpRnQveitYMy9mNy82MUFIQ3pmQ3p3bmNFbVhRYlIySWRkektjN1habWRRYzhLU3g0Nll3T2dBRVgvQUFxTHdoNWNDblJJbjhrc3lNOGtqTmxsVkdMTVd5eEtvb0pKT1FvcnYvOEFoRUxiL244dnYrLzMvd0Jhc0x3Ym8zOXNhZmV5M1Y5ZU84V28zbHNwV1VENUk1M1JCMC91cUtBSyttZUZkSzBlS0dLMHMwaWlodHZzY2NlNW1WWWM1MllKUEg5T09sWitsL0RYd3hvc2xoSmFhTmJ4eTZlMHJXa2pBdTBIbUREaEN4SlVFY1lIQUFBR0FBSzdYL2hFTGIvbjh2disvd0IvOWFqL0FJUkMyLzUvTDcvdjkvOEFXb0E1M1MvRG1uYVBaVFdsdGIvdUpuTWtxek8weGtZNEdXTGtrOEFEazlBQlZxRFRiUzFrdUhodFlZbnVEdW1hT01LWkQ2c1FPZnhyWS80UkMyLzUvTDcvQUwvZi9Xby80UkMyL3dDZnkrLzcvZjhBMXFBTWVMVGJTQmxhTzFoalpXM3F5eGdFTnQyNUhIWGFBUG9NVnErSGYrUXBmZjhBWEtMK2IwLy9BSVJDMi81L0w3L3Y5LzhBV3E5cGVpdzZTMHJ4eVRTdklBR2FaOXh3TTRINm1nRFFvb29vQUtLS0tBQ2lpaWdBb29vb0FLS0tLQUNpaWlnQXJBOFVmOGZHbS84QVhSLy9BRUExdjFSMVRSNGRXV0lTdkxHWW1MSzBUN1NNakZBSEFhMTRDMEh4RmVOZDZqcHlYRnl5cWpTNzNWaXE3dG95Q09CdmJqL2FQclVXbC9Eanczb3R2TEJaYVZIQkRMYk5ac2dkeUJDMzNrR1Q4b09CbkdPZzlCWGEvd0RDSVczL0FEK1gzL2Y3L3dDdFNmOEFDSVczL1A1ZmY5L3YvclVBY0hOOEsvQzkxSGRKYzZZYjM3VUhXVnJ5NWxuWmxZb1N1WGNrTCs2andvNEFVQUFDcm1tZUFQRCtqQ1FXV21wYmlTYU81Y0k3L1BMSDl4enp5d3dPZTRBQjZDdXcvd0NFUXR2K2Z5Ky83L2YvQUZxUCtFUXR2K2Z5Ky83L0FILzFxQU9MMUw0Y2VHdFl1dFJ1TDdSN2U2ZlVWUmJ0WmN0SE50WldVc21kdWNvbVRqSjJLQ1RnVnBXL2gzVDdYVmY3UmpnSzNZaThoV01qbFVUamhVSjJybkF5UUFUZ1pxeDRRME1heHBNazl6ZlhqU0xkM1VJSWxBK1ZKM1JlM29vcmEvNFJDMi81L0w3L0FML2YvV29BeEJwTmlMaUs0RmxiaWVJc1k1ZktYY200a3RnNHlNa2tuMXpTemFYWlhMU05OWjI4clNLeU9YaVVsbFlBTXB5T1FRcTVIZmFQU3RyL0FJUkMyLzUvTDcvdjkvOEFXby80UkMyLzUvTDcvdjhBZi9Xb0F6WS8rUWxwdi9YeC93Q3lOWFlWald2aGUydGJxS2Z6N3FWb20zS3NrdVZ6Z2pPTWU5Yk5BQlJSUlFBVVVVVUFGRkZGQUJSUlJRQVVVVVVBRkZGRkFCUlJSUUFVVVVVQUZGRkZBQlJSUlFBVVVVVUFGRkZGQUJSUlJRQVVVVVVBRmNWOE05V3NiaUhXN0NLOHQ1TDYyMWkvTTlxa3FtV0lOY3lGU3k1eXVRUVJucUNLN1dzcldQQzJqK0lHUjlTMHkxdkpFKzVKTkVDNmY3cmRSK0JvQTFhSzVLNDhBdGJzajZKNGcxYlJHVTVNYXppNmhmMktUaDhEL2NLbjNxV1NUeGpwNjdoRG8rdHF2VlVhU3prUDBCOHhTZnFRUGVnRHFLSzVXRDRnUlFvZjdYMGZWdERrWDd3dWJiemsrdm1RbDB4OVNEN0N0alJmRW1rK0k0WGwwclVyWFVVUTRjMjB5eWJENk5nOEgyTkFHbFJSUlFBVVVVVUFGRkZGQUJSUlJRQVVVVVVBRkZGRkFCUlJSUUFVVVUyU1JJWTJra1pVUlJsbVk0QUhxVFFBNml1Wi93Q0ZqZUg1V2RMSytPck9oMnN1bHhQZDRQb1RHQ0FmcWFoaThRK0pkWFkvWVBEWDltd0E4VDYzZEtqTjdyRkY1aHgvdkZEN1VBZFpVVnpkUTJkdkpQY1N4d1F4amM4a2pCVlVlcEo2VnpFL2hueERyRG9kUThVUzJVQSs5YjZMYkpBSDlta2s4eC8rK0NocXpEOFBQRDBjcVN6YWFsL01oeXN1b085MDRQcURLV0lOQUZmNFkzY0Yvd0NGVGMyMDBkeGJ6WDE0OGMwVEJrZFRjeUVFRWNFSDFycTZSVkNLRlVCVkF3QUJnQ2xvQUtLS0tBQ2lpaWdBb29vb0FLS0tLQUNpaWlnQW9vb29BS0tLS0FDaWlpZ0Fvb29vQUtLS0tBQ2lpaWdBb29vb0FLS0tLQUNpaWlnQW9vb29BS0tLS0FDaWlpZ0Fvb29vQUt4Tlk4RjZGcjkwbDFmNlZiVDNpRENYZXpiT24rN0lNTVB3TmJkRkFIS1RlQ2J5MFlQbzNpWFU5T1lkSWJwbHZZRy8zaEtDL3dEM3k2MDlyenhmcHNaYWJUOU0xb0wxK3hUdGJTTi91cEp1WFAxa0gxcnFLS0FPVXQvaU5ZUnJqVnJMVXZEMHcrOUhxTnFkZy83YXg3NGorRDF6L2dYOW9id1Q4VkxmVVc4R2F6YmVJYmpUNytiVHJ1M2hrQ3RCSkU3S3pPRHlFTzNLc0FRd0l4M3g2VXk3bEtuSUJHT0RpdkdmQnY3Ty93QU4vZ2Zxa012Z2Z3anAzaCs2dkk1RXVydTNRdFBPQVZPSGtZbG1HZWNFOWFBUFJ2OEFoSkx6L29Idy93RGdTZjhBNGlqL0FJU1M4LzZCOFA4QTRFbi9BT0lyaTlhK0pHaWVIOWVnMGU5R3ByZXo4eCtUbzk1TkN3NHlmT1NJeGdBRWJpV3d2ZkZiRWZpRFM1VWdaTlN0SkZuTENJcE9wOHdqcUZ3Zm1JOXFBTnovQUlTUzgvNkI4UDhBNEVuL0FPSW8vd0NFa3ZQK2dmRC9BT0JKL3dEaUs1cUh4aG8xd3RxeVg4ZXk1Z056RzdBcW9qd2h5eEl3aFBtSmdOZ25QQTROV1c4UWFYR3NETnFWb29uRzZFbWRSNWc5VjU1SDBvQTNQK0VrdlA4QW9Idy8rQkovK0lvLzRTUzgvd0NnZkQvNEVuLzRpdk1MZjQ5ZUQ3bStpdFV2THBtZGdoa1d5bWVOR2JhVURPcWxmbURxUnpnRHJnOFZiMW40dWFQb045YjJsMWFha3N0d3pKRmkyd0pHV1R5eXE1STNuT0RoYzVEQWpnMEFlaWY4SkplZjlBK0gvd0FDVC84QUVVeWJ4a21uTDUycHhRMkZrdjhBckxwcmdGSXY5cHlRTUw3OXE4NzFYNHplSGRIdjd1enVEZENhMmtNYmJZaGdrWjNZSlBiSGZHZTJhM2ZFMmo2VjQwOE9ycHVxV01HcWFOcWNsdkRjV2QzR0hpbmhlUkF5T3A0SUlPQ0RSMHVIa004QWZ0Si9EdjRvNlRlYWw0VzE4YTNhV3Q3TFlzMWxiU3pPMGtaQVlxaUtXWlRrWVlEQkJ5SzZLRHhWcnVyeU1OTzhMWEZ0QjJ1dFpuUzJWL2RZMDN5Zjk5cXRWdmhiOEdQQmZ3VDB1KzB6d1BvRnY0YzAyOXVUZHpXZG9XOG95bFFwWUtTUXVRbzRHQnhYYTBBY25Kb1BpalZuSDI3eEhIcGR2L3p3MFcxVVNIMmFXYmZrZjdxS2ZlcEQ4TmZEOXdVYlViUjlhWlR1QjFhWjdvYnZVTElTb1AwRmRSUlFBeUdHTzNpV0tKRmlqVVlWRUFBQTlBS2ZSUlFBVVVVVUFGRkZGQUJSUlJRQVVVVVVBRkZGRkFCUlJSUUFVVVVVQUZGRkZBQlJSUlFBVVVVVUFGRkZGQUJSUlJRQVVVVVVBRkZGRkFCUlJSUUFVVVVVQUZGRkZBQlJSUlFBVVVVVUFGRkZGQUJSUlJRQVVVVVVBRmM3NG0vNUNHbmY3c3YvQUxMWFJWaWVJckc1dUpMUzR0NHZQOG5jclJxd0RZWURrWjQ3ZnJRQndmamZ3ZmMrS0RFOXJkdzJrc2RwZDI2bWVBVEx1bWpDZ2xUd3dCSElQV3VEdGZnZHE4ZXBXMTdKclZtWnhlL2Fwbit6dXgyYm9XOHNCbkt0L3FpTnhYS2tobDI0MjE3SjVOLy9BTkF5NC83NmovOEFpcVBKdi84QW9HWEgvZlVmL3dBVlIxdUhTeDQzcGY3UDh1bHlhWkVOVWl1Ykd6UG1NdHhFWGtrZHBiU1NRTXhQekxtMUlYT2NCd3ZSUUticlh3ejF5RFZvTFd3dExlK3NiaTVTZWU1bWpUWmJxdDlOY0JVeSs0SGJMdE9FWWNEMTQ5bThtLzhBK2daY2Y5OVIvd0R4VlV0UTFLWFM1OVBodU5QdVVlK3VQczBBR3c3cE5qdmo3M0h5eHQrVkFIZ0ZyK3ozNHAwelVWdUxUV1pMYUJYaGI3SlozMGtVVDdDVXlWR0FTVVdNa2tjbk5idXBmQWZVOVExUzNsZ2s4UDZmWkxlWEplM2JTdnRHNjNaNW1pRG5lZ1lEZWcyWXd1TWduRmUzK1RmL0FQUU11UDhBdnFQL0FPS284bS8vQU9nWmNmOEFmVWYvQU1WUUI4LytKdmdCckd1NnhxTjFKSXR5czA4a3NEUGZGQkdNbGxDeCtXVUF6dHlHRG5nWUs0cjIyM3RYc2RMMGEya1l2SkROWnhzeE9ja1NSZ245SzAvSnYvOEFvR1hIL2ZVZi93QVZRdWwzMTljV3FOWnlXOGFUeHpOSkl5NEFSdzJBQVRrbkdQeG82V0RyYzYraWlpZ0Fvb29vQUtLS0tBQ2lpaWdBb29vb0FLS0tLQUNpaWlnQW9vb29BS0tLS0FDaWlpZ0Fvb29vQUtLS0tBQ2lpaWdBb29vb0FLS0tLQUNpaWlnQW9vb29BS0tLS0FDaWlpZ0Fvb29vQUtLS0tBQ2lpaWdBb29vb0FLS0tLQUNpaWlnQW9vb29BS0tLeWRhOFZhVDRka2hqMUsranRIbVZualY4NVpWS3FUeC90T2crckFkNkFOYXVROGVmOGhud1AvMkhQL2JPNnF3dnhLOE5OcDR2djdVUVcvSUxHTjl3SVF5RUZkdVFkb0p4ak9BZlNzZlZ2RW1qZUxKZEcxQ3cxVzNXMTBQVW83dTllNER3N1VlMm1STWJsR1NmTlFqdGpuUFRJQjM5RmNmcHZ4ZThGNnhOYVJXbmlYVHBaTHIvQUZLK2VvMy9BQ0kvR2ZhVlB6eDFCcDZmRmp3aEpQREN2aUN4YVNaMlJBSk1nc0dLRVo2RDVnUVBYdFFCMXRGRkZBQlJSUlFBVVVVVUFGRkZGQUJSUlJRQVVVVVVBRkZGRkFCUlJSUUFVVVVVQUZGRkZBQlJSUlFBVVVVVUFGRkZGQUJSUlJRQVVVVVVBRkZGRkFCUlJSUUFVVVVVQUZGRkZBQlJSUlFBVVVVVUFGRkZGQUJSUlJRQVVVVVVBRkZGRkFCUlJSUUFVVVVVQUZlTC9IejRhNjc0enZySyswYTF0cm93V3J4RU8rSlZjTjVpTW9QeW5sQXZQVHpEOVI3UlJSMXVIU3g4NWVFUGhsNDIwNjJhMGUybnNwbTFLVlpiaUcrRUtDM2FDWUsrVkozWVAyZkh5azVIKzlXajRRK0RsN292aCszMGJXTHUzdExDL3U1aTlxSkZKbWs4dVlJaXgrV3FaSUlrSk9TZktINGUrVnlIanova00rQi8rdzUvN1ozVkt3enc3d3o4UC9pSnB1cCtGYmpVOUwxS2FTeXVGZWE1TjlIY01rWnNoQklyRDdRZ0pNbzM0Mk1NSE9UeXBxYWI4Si9HZHZyR21Td2FacUw2VGJ5K2ZPTHFPelNZYnJwcFFVUkpGVm1BMk5qQ0toM0VieUF0ZlZkRlYyWXVsaEYrNktXaWlrQVVVVVVBRkZGRkFCUlJSUUFVVVVVQUZGRkZBQlJSUlFBVVVVVUFGRkZGQUJSUlJRQVVVVVVBRkZGRkFCUlJSUUFVVVVVQUZGRkZBQlJSUlFBVVVVVUFGRkZGQUJSUlJRQVVVVVVBRkZGRkFCUlJSUUFVVVVVQUZGRkZBQlJSUlFBVVVVVUFZbDU0dzB5eHZKN1dScnBwb1dDeUNHeW5sVlNWRFkzS2hIUWp2M3FML2hPZEsvNmYvd0R3V1hQL0FNYnJLSEd0YTZUL0FNL2Evd0RvaUtzcHZIZmhwUHZlSWRLWG5ITjdGMXpqSDNxQU9xLzRUblN2K24vL0FNRmx6LzhBRzZQK0U1MHIvcC8vQVBCWmMvOEF4dXNDUHhGcGMxd3R1bC9BMHpTTkVFRGpKWlFDdytvQkIvR21YM2luUnRMbWxpdmRWczdONHRvY1hFNng3U3dKVUhKSEpDazQ5cUFPaS80VG5TdituLzhBOEZsei93REc2K2ZmMmw0dmlUNHU4ZWZDMjYrSEhpRzkwblFiUFdOM2lHTnRKWXREQnNZZmFFOHlMTE50YVNQYU04eUtjWUJJOWlrOFNhVkhzM2FoYjRkSTVGWVNBZ3E3YlViSTR3eDRCNzFYdlBHM2gzVFlrbHU5ZjB1MWplTlpsZWE4alFOR2VqZ2x2dW5zZWxBSFVmOEFDY2FWL3dCUC93RDRMTG4vQU9OMGY4SnpwWC9UL3dEK0N5NS8rTjFqNlpxdGxyVmpGZTZmZVc5L1p5Z21PNHRaVmtqZkJ3Y01wSVBJTlRXOXhGZVFSendTcE5ESW9aSkkyREt3UFFnanFLQU5ML2hPZEsvNmYvOEF3V1hQL3dBYm8vNFRuU3Yrbi84QThGbHovd0RHNm8wak1GVXN4QVVESko2Q2dDLy9BTUp6cFgvVC93RCtDeTUvK04xczJkNUZxRnJGY3dNV2hsWGNwWlNweDlDQVIrTmNqYlg5dGVNNjI5eEZPMGUzZUkzREZjakl6anBrRUVleHJvZkRQL0lCc2Y4QXJuUUJxVVVVVUFGRkZGQUJSUlJRQVVVVVVBRkZGRkFCUlJSUUFVVVVVQUZGRkZBQlJSUlFBVVVVVUFGRkZGQUJSUlJRQVVVVVVBRkZGRkFCUlJSUUFVVVVVQUZGRkZBQlJSUlFBVVVVVUFGRkZGQUJSUlJRQVVVVVVBRkZGRkFCUlJSUUJ4US81RGV1ZjlmYS93RG9pS3ZJZFk4QjY5YWFpSkpYbTFGYnZWb3BWaGhudUo0MWpHcFJUaDNFamJJdGtLRVlRQWRRTThWNnpjWFNXbXU2eUpSSXUrNVZsL2RzUVI1TVl5Q0I2Zy9sUy8ycGIvM24vd0MvVC80VWRiZ2VEMy93MTFYVk5TMTY0ZzBsR2h0eHFGekY1K25Sd21lV1JGU0pZRGtNR3pHeExNY2NyanJrYnVzK0Y5Yi9BTE84WGFyQ05Xc05YdkkxbHNMZlNQM2VKbWd5cU9BU0hLeUVobk9NK3dBQTliL3RTMi92UC8zNmYvQ2orMUxmKzgvL0FINmYvQ2xiU3c3NjNQS3ZFUHdxdXI2Ylc3Z1hHczZqZHhSV0Z6YUsycVRXL25QQ3hZdzdvMlVITzNxMmNOSVRXWGZlR1BFbDVxbHBONGQwbTcwN1QydGxqUzExR1ZJbGhFYzB6Z3RLMGMwb2RtRWJZMmtZYkJyMm4rMUxiKzgvL2ZwLzhLUDdVdC83ei84QWZwLzhLWkp5L3dBTW9kWnNQQmNhNnpheWYyZzExTXhpM0tXQ3ZNeEJ5VmpCR0d6OTFUanRuaXZMdEwrRVhpL1F0QzBiVDdlUzhHbnc2ZFlyZTJOdnFSTFBjcEhjcktVTFNBQUJtdHpnTUJoQVFDVUFQdlA5cVczOTUvOEF2MC8rRkg5cVczOTUvd0R2MC84QWhRTTRId1I0VzhVNlY0dUY3ckZ6SmM2YzFrc0lpYTc4enk3Z1J3aVNZOEFONWhWaDBHM1lTQVBNYkZmeFI0WDhUYTE0MVRVSVB0a1Zqc2pTS01YU0lrU3I1Z2xWMURFSGVDcEdGYk9Sa3B0RmVqZjJwYmYzbi83OVAvaFIvYWx2L2VmL0FMOVAvaFFCeC93bDhFM0hndlQ5V2p1cmRJSnJ5NmptK1NUZnVBdFlJeWV2SHpvOWVxK0dmK1FEWS84QVhPdWEvdFMzL3ZQL0FOK24vd0FLNmJ3eUN1ZzJPUVZQbGpoaGcwQWFkRkZGQUJSUlJRQVVVVVVBRkZGRkFCUlJSUUFVVVVVQUZGRkZBQlJSUlFBVVVVVUFGRkZGQUJSUlJRQVVVVVVBRkZGRkFCUlJSUUFVVVVVQUZGRkZBQlJSUlFBVVVVVUFGRkZGQUJSUlJRQVVVVVVBRkZGRkFCUlJSUUFVVVVVQUZGRkZBQlJSUlFBVVVVVUFGRkZGQUJSUlJRQVVVVVVBRkZGRkFCUlJSUUFVVVVVQUZGRkZBQlJSUlFBVVVVVUFGRkZGQUJSUlJRQVVVVVVBZi8vWiIgaGVpZ2h0PSI0OTIiIHdpZHRoPSI2NTAiLz48Y2xpcFBhdGggaWQ9ImNsaXAzIj48cmVjdCBoZWlnaHQ9IjM0NTM0NDMiIHdpZHRoPSI0NTYyNDc1IiB5PSIwIiB4PSIwIi8+PC9jbGlwUGF0aD48L2RlZnM+PGcgdHJhbnNmb3JtPSJ0cmFuc2xhdGUoLTM2OSAtMTIyKSIgY2xpcC1wYXRoPSJ1cmwoI2NsaXAwKSI+PGcgdHJhbnNmb3JtPSJtYXRyaXgoMC4wMDAxMDQ5ODcgMCAwIDAuMDAwMTA0OTg3IDM2OSAxMjIpIiBjbGlwLXBhdGg9InVybCgjY2xpcDEpIj48ZyB0cmFuc2Zvcm09Im1hdHJpeCgxIDAgMCAxLjAwMTIgLTAuMjUgMCkiIGNsaXAtcGF0aD0idXJsKCNjbGlwMykiPjx1c2UgdHJhbnNmb3JtPSJzY2FsZSg3MDE5LjE5IDcwMTkuMTkpIiB4bGluazpocmVmPSIjaW1nMiIgaGVpZ2h0PSIxMDAlIiB3aWR0aD0iMTAwJSIvPjwvZz48L2c+PC9nPjwvc3ZnPg==;" vertex="1" parent="1">
          <mxGeometry x="-609" y="110" width="609" height="461.52" as="geometry" />
        </mxCell>
        <mxCell id="DiaToFT7Mst47RzkWSO3-23" value="" style="rounded=1;whiteSpace=wrap;html=1;fillColor=#f5f5f5;fontColor=#333333;strokeColor=#666666;" vertex="1" parent="1">
          <mxGeometry y="150" width="480" height="790" as="geometry" />
        </mxCell>
        <mxCell id="DiaToFT7Mst47RzkWSO3-24" value="&lt;span style=&quot;background-color: transparent; color: light-dark(rgb(0, 0, 0), rgb(255, 255, 255));&quot;&gt;&lt;font style=&quot;font-size: 14px;&quot;&gt;搭建Mcal&lt;/font&gt;&lt;/span&gt;&lt;div&gt;EB tresos Studio-用于生成BSW&lt;span style=&quot;background-color: transparent; color: light-dark(rgb(0, 0, 0), rgb(255, 255, 255));&quot;&gt;&lt;font&gt;&lt;/font&gt;&lt;/span&gt;&lt;/div&gt;" style="rounded=0;whiteSpace=wrap;html=1;spacing=-1;fontSize=12;fontStyle=1;fillColor=#dae8fc;strokeColor=#6c8ebf;" vertex="1" parent="1">
          <mxGeometry y="150" width="480" height="60" as="geometry" />
        </mxCell>
        <mxCell id="DiaToFT7Mst47RzkWSO3-39" value="" style="edgeStyle=orthogonalEdgeStyle;rounded=0;orthogonalLoop=1;jettySize=auto;html=1;fontFamily=Helvetica;fontSize=12;fontColor=default;" edge="1" parent="1" source="DiaToFT7Mst47RzkWSO3-26" target="DiaToFT7Mst47RzkWSO3-30">
          <mxGeometry relative="1" as="geometry" />
        </mxCell>
        <mxCell id="DiaToFT7Mst47RzkWSO3-26" value="&lt;span style=&quot;color: rgb(77, 77, 77); font-family: -apple-system, &amp;quot;SF UI Text&amp;quot;, Arial, &amp;quot;PingFang SC&amp;quot;, &amp;quot;Hiragino Sans GB&amp;quot;, &amp;quot;Microsoft YaHei&amp;quot;, &amp;quot;WenQuanYi Micro Hei&amp;quot;, sans-serif; font-size: 16px; font-variant-ligatures: no-common-ligatures; text-align: start; background-color: rgb(255, 255, 255);&quot;&gt;打开EB&lt;/span&gt;" style="rounded=1;whiteSpace=wrap;html=1;" vertex="1" parent="1">
          <mxGeometry x="175" y="220" width="120" height="30" as="geometry" />
        </mxCell>
        <mxCell id="DiaToFT7Mst47RzkWSO3-29" value="选择AUTOSAR版本&lt;div&gt;&lt;span style=&quot;background-color: rgb(255, 181, 112);&quot;&gt;Halo OS应该选择什么版本？&lt;/span&gt;&lt;/div&gt;" style="rounded=0;whiteSpace=wrap;html=1;" vertex="1" parent="1">
          <mxGeometry x="155" y="290" width="160" height="50" as="geometry" />
        </mxCell>
        <mxCell id="DiaToFT7Mst47RzkWSO3-40" value="" style="edgeStyle=orthogonalEdgeStyle;rounded=0;orthogonalLoop=1;jettySize=auto;html=1;fontFamily=Helvetica;fontSize=12;fontColor=default;" edge="1" parent="1" source="DiaToFT7Mst47RzkWSO3-30" target="DiaToFT7Mst47RzkWSO3-34">
          <mxGeometry relative="1" as="geometry" />
        </mxCell>
        <mxCell id="DiaToFT7Mst47RzkWSO3-30" value="&lt;span style=&quot;color: rgb(77, 77, 77); font-family: -apple-system, &amp;quot;SF UI Text&amp;quot;, Arial, &amp;quot;PingFang SC&amp;quot;, &amp;quot;Hiragino Sans GB&amp;quot;, &amp;quot;Microsoft YaHei&amp;quot;, &amp;quot;WenQuanYi Micro Hei&amp;quot;, sans-serif; font-size: 16px; font-variant-ligatures: no-common-ligatures; text-align: start; background-color: rgb(255, 255, 255);&quot;&gt;选择需要用到的模块&lt;/span&gt;&lt;div&gt;&lt;span style=&quot;color: rgb(77, 77, 77); font-family: -apple-system, &amp;quot;SF UI Text&amp;quot;, Arial, &amp;quot;PingFang SC&amp;quot;, &amp;quot;Hiragino Sans GB&amp;quot;, &amp;quot;Microsoft YaHei&amp;quot;, &amp;quot;WenQuanYi Micro Hei&amp;quot;, sans-serif; font-size: 16px; font-variant-ligatures: no-common-ligatures; text-align: start; background-color: rgb(255, 255, 255);&quot;&gt;{Dio, Mcu, Port}&lt;/span&gt;&lt;/div&gt;" style="rounded=0;whiteSpace=wrap;html=1;" vertex="1" parent="1">
          <mxGeometry x="155" y="360" width="160" height="60" as="geometry" />
        </mxCell>
        <mxCell id="DiaToFT7Mst47RzkWSO3-32" value="&lt;div style=&quot;text-align: start;&quot;&gt;&lt;font face=&quot;-apple-system, SF UI Text, Arial, PingFang SC, Hiragino Sans GB, Microsoft YaHei, WenQuanYi Micro Hei, sans-serif&quot; color=&quot;#4d4d4d&quot;&gt;&lt;span style=&quot;font-size: 16px; font-variant-ligatures: no-common-ligatures;&quot;&gt;配置Resource&lt;/span&gt;&lt;/font&gt;&lt;/div&gt;&lt;div style=&quot;text-align: start;&quot;&gt;&lt;font face=&quot;-apple-system, SF UI Text, Arial, PingFang SC, Hiragino Sans GB, Microsoft YaHei, WenQuanYi Micro Hei, sans-serif&quot; color=&quot;#4d4d4d&quot;&gt;&lt;span style=&quot;font-size: 16px; font-variant-ligatures: no-common-ligatures;&quot;&gt;选择具体芯片分类&lt;/span&gt;&lt;/font&gt;&lt;/div&gt;" style="rounded=0;whiteSpace=wrap;html=1;" vertex="1" parent="1">
          <mxGeometry x="155" y="430" width="160" height="60" as="geometry" />
        </mxCell>
        <mxCell id="DiaToFT7Mst47RzkWSO3-33" value="" style="rounded=0;whiteSpace=wrap;html=1;align=center;verticalAlign=middle;fontFamily=Helvetica;fontSize=12;fillColor=#ffcd28;strokeColor=#d79b00;gradientColor=#ffa500;" vertex="1" parent="1">
          <mxGeometry x="30" y="501.52" width="410" height="358.48" as="geometry" />
        </mxCell>
        <mxCell id="DiaToFT7Mst47RzkWSO3-34" value="配置Mcu" style="rounded=0;whiteSpace=wrap;html=1;strokeColor=#6c8ebf;align=center;verticalAlign=middle;fontFamily=Helvetica;fontSize=12;fillColor=#dae8fc;gradientColor=#7ea6e0;" vertex="1" parent="1">
          <mxGeometry x="175" y="501.52" width="120" height="28.48" as="geometry" />
        </mxCell>
        <mxCell id="DiaToFT7Mst47RzkWSO3-35" value="&lt;div style=&quot;text-align: start;&quot;&gt;&lt;font face=&quot;-apple-system, SF UI Text, Arial, PingFang SC, Hiragino Sans GB, Microsoft YaHei, WenQuanYi Micro Hei, sans-serif&quot; color=&quot;#4d4d4d&quot;&gt;&lt;span style=&quot;font-size: 16px; font-variant-ligatures: no-common-ligatures;&quot;&gt;配置时钟&lt;/span&gt;&lt;/font&gt;&lt;/div&gt;&lt;div style=&quot;text-align: start;&quot;&gt;&lt;ul&gt;&lt;li&gt;&lt;font face=&quot;-apple-system, SF UI Text, Arial, PingFang SC, Hiragino Sans GB, Microsoft YaHei, WenQuanYi Micro Hei, sans-serif&quot; color=&quot;#4d4d4d&quot;&gt;&lt;span style=&quot;font-size: 16px; font-variant-ligatures: no-common-ligatures;&quot;&gt;TC2手册有一个excel表可以傻瓜配置&lt;/span&gt;&lt;/font&gt;&lt;/li&gt;&lt;li&gt;&lt;font face=&quot;-apple-system, SF UI Text, Arial, PingFang SC, Hiragino Sans GB, Microsoft YaHei, WenQuanYi Micro Hei, sans-serif&quot; color=&quot;#4d4d4d&quot;&gt;&lt;span style=&quot;font-size: 16px; font-variant-ligatures: no-common-ligatures; background-color: rgb(255, 217, 102);&quot;&gt;TC3没有excel表，文中也没提配置方法&lt;/span&gt;&lt;/font&gt;&lt;/li&gt;&lt;/ul&gt;&lt;/div&gt;" style="rounded=0;whiteSpace=wrap;html=1;" vertex="1" parent="1">
          <mxGeometry x="75" y="540" width="320" height="80" as="geometry" />
        </mxCell>
        <mxCell id="DiaToFT7Mst47RzkWSO3-36" value="&lt;div style=&quot;text-align: start;&quot;&gt;&lt;font face=&quot;-apple-system, SF UI Text, Arial, PingFang SC, Hiragino Sans GB, Microsoft YaHei, WenQuanYi Micro Hei, sans-serif&quot; color=&quot;#4d4d4d&quot;&gt;&lt;span style=&quot;font-size: 16px; font-variant-ligatures: no-common-ligatures;&quot;&gt;配置Port&lt;/span&gt;&lt;/font&gt;&lt;/div&gt;&lt;div style=&quot;text-align: start;&quot;&gt;&lt;ul&gt;&lt;li&gt;&lt;font face=&quot;-apple-system, SF UI Text, Arial, PingFang SC, Hiragino Sans GB, Microsoft YaHei, WenQuanYi Micro Hei, sans-serif&quot; color=&quot;#4d4d4d&quot;&gt;&lt;span style=&quot;font-size: 16px; font-variant-ligatures: no-common-ligatures;&quot;&gt;找到需要修改的Pin,修改工作方式（如输入/输出）&lt;/span&gt;&lt;/font&gt;&amp;nbsp;&lt;/li&gt;&lt;/ul&gt;&lt;/div&gt;" style="rounded=0;whiteSpace=wrap;html=1;" vertex="1" parent="1">
          <mxGeometry x="75" y="650" width="320" height="80" as="geometry" />
        </mxCell>
        <mxCell id="DiaToFT7Mst47RzkWSO3-37" value="&lt;div style=&quot;text-align: start;&quot;&gt;&lt;font face=&quot;-apple-system, SF UI Text, Arial, PingFang SC, Hiragino Sans GB, Microsoft YaHei, WenQuanYi Micro Hei, sans-serif&quot; color=&quot;#4d4d4d&quot;&gt;&lt;span style=&quot;font-size: 16px; font-variant-ligatures: no-common-ligatures;&quot;&gt;配置Dio&lt;/span&gt;&lt;/font&gt;&lt;/div&gt;&lt;div style=&quot;text-align: start;&quot;&gt;&lt;ul&gt;&lt;li&gt;&lt;font face=&quot;-apple-system, SF UI Text, Arial, PingFang SC, Hiragino Sans GB, Microsoft YaHei, WenQuanYi Micro Hei, sans-serif&quot; color=&quot;#4d4d4d&quot;&gt;&lt;span style=&quot;font-size: 16px; font-variant-ligatures: no-common-ligatures;&quot;&gt;建立硬件引脚与软件接口的映射关系&lt;/span&gt;&lt;/font&gt;&lt;/li&gt;&lt;/ul&gt;&lt;/div&gt;" style="rounded=0;whiteSpace=wrap;html=1;" vertex="1" parent="1">
          <mxGeometry x="75" y="750" width="320" height="80" as="geometry" />
        </mxCell>
        <mxCell id="DiaToFT7Mst47RzkWSO3-38" value="&lt;div style=&quot;text-align: start;&quot;&gt;&lt;font face=&quot;-apple-system, SF UI Text, Arial, PingFang SC, Hiragino Sans GB, Microsoft YaHei, WenQuanYi Micro Hei, sans-serif&quot; color=&quot;#4d4d4d&quot;&gt;&lt;span style=&quot;font-size: 16px; font-variant-ligatures: no-common-ligatures; background-color: rgb(255, 255, 255);&quot;&gt;导出arxml&lt;/span&gt;&lt;/font&gt;&lt;/div&gt;" style="rounded=1;whiteSpace=wrap;html=1;" vertex="1" parent="1">
          <mxGeometry x="175" y="890" width="120" height="30" as="geometry" />
        </mxCell>
        <mxCell id="DiaToFT7Mst47RzkWSO3-42" value="" style="endArrow=classic;html=1;rounded=0;fontFamily=Helvetica;fontSize=12;fontColor=default;exitX=0.5;exitY=1;exitDx=0;exitDy=0;entryX=0.5;entryY=0;entryDx=0;entryDy=0;" edge="1" parent="1" source="DiaToFT7Mst47RzkWSO3-33" target="DiaToFT7Mst47RzkWSO3-38">
          <mxGeometry width="50" height="50" relative="1" as="geometry">
            <mxPoint x="200" y="760" as="sourcePoint" />
            <mxPoint x="250" y="710" as="targetPoint" />
          </mxGeometry>
        </mxCell>
        <mxCell id="DiaToFT7Mst47RzkWSO3-43" value="" style="rounded=1;whiteSpace=wrap;html=1;fillColor=#f5f5f5;fontColor=#333333;strokeColor=#666666;movable=1;resizable=1;rotatable=1;deletable=1;editable=1;locked=0;connectable=1;" vertex="1" parent="1">
          <mxGeometry x="510" y="100" width="660" height="1580" as="geometry" />
        </mxCell>
        <mxCell id="DiaToFT7Mst47RzkWSO3-44" value="&lt;span style=&quot;font-size: 14px;&quot;&gt;DaVinci Configuration配置&lt;/span&gt;" style="rounded=0;whiteSpace=wrap;html=1;spacing=-1;fontSize=12;fontStyle=1;fillColor=#dae8fc;strokeColor=#6c8ebf;" vertex="1" parent="1">
          <mxGeometry x="590" y="150" width="480" height="60" as="geometry" />
        </mxCell>
        <mxCell id="DiaToFT7Mst47RzkWSO3-57" value="" style="rounded=0;whiteSpace=wrap;html=1;align=center;verticalAlign=middle;fontFamily=Helvetica;fontSize=12;fillColor=#d5e8d4;strokeColor=#82b366;gradientColor=#97d077;" vertex="1" parent="1">
          <mxGeometry x="630" y="261.52" width="410" height="298.48" as="geometry" />
        </mxCell>
        <mxCell id="DiaToFT7Mst47RzkWSO3-58" value="" style="edgeStyle=orthogonalEdgeStyle;rounded=0;orthogonalLoop=1;jettySize=auto;html=1;fontFamily=Helvetica;fontSize=12;fontColor=default;" edge="1" parent="1" source="DiaToFT7Mst47RzkWSO3-59" target="DiaToFT7Mst47RzkWSO3-60">
          <mxGeometry relative="1" as="geometry" />
        </mxCell>
        <mxCell id="DiaToFT7Mst47RzkWSO3-59" value="&lt;span style=&quot;color: rgb(77, 77, 77); font-family: -apple-system, &amp;quot;SF UI Text&amp;quot;, Arial, &amp;quot;PingFang SC&amp;quot;, &amp;quot;Hiragino Sans GB&amp;quot;, &amp;quot;Microsoft YaHei&amp;quot;, &amp;quot;WenQuanYi Micro Hei&amp;quot;, sans-serif; font-size: 16px; font-variant-ligatures: no-common-ligatures; text-align: start; background-color: rgb(255, 255, 255);&quot;&gt;打开&amp;nbsp;Configuration&lt;/span&gt;" style="rounded=1;whiteSpace=wrap;html=1;" vertex="1" parent="1">
          <mxGeometry x="762.5" y="220" width="150" height="30" as="geometry" />
        </mxCell>
        <mxCell id="DiaToFT7Mst47RzkWSO3-60" value="新建工程" style="rounded=0;whiteSpace=wrap;html=1;" vertex="1" parent="1">
          <mxGeometry x="758.75" y="320" width="160" height="50" as="geometry" />
        </mxCell>
        <mxCell id="DiaToFT7Mst47RzkWSO3-61" value="导入通信文件&lt;div&gt;&lt;ul&gt;&lt;li&gt;DBC文件或者其他的通信矩阵的文件&lt;/li&gt;&lt;/ul&gt;&lt;/div&gt;" style="rounded=0;whiteSpace=wrap;html=1;" vertex="1" parent="1">
          <mxGeometry x="756.25" y="380" width="160" height="80" as="geometry" />
        </mxCell>
        <mxCell id="DiaToFT7Mst47RzkWSO3-62" value="导入Mcal文件" style="rounded=0;whiteSpace=wrap;html=1;" vertex="1" parent="1">
          <mxGeometry x="756.25" y="470" width="160" height="80" as="geometry" />
        </mxCell>
        <mxCell id="DiaToFT7Mst47RzkWSO3-65" value="&lt;span style=&quot;font-size: 14px; font-weight: 700;&quot;&gt;DaVinci Configuration配置前准备&lt;/span&gt;" style="rounded=0;whiteSpace=wrap;html=1;strokeColor=#6c8ebf;align=center;verticalAlign=middle;fontFamily=Helvetica;fontSize=12;fillColor=#dae8fc;gradientColor=#7ea6e0;" vertex="1" parent="1">
          <mxGeometry x="630" y="261.52" width="260" height="28.48" as="geometry" />
        </mxCell>
        <mxCell id="DiaToFT7Mst47RzkWSO3-55" value="" style="edgeStyle=elbowEdgeStyle;elbow=horizontal;endArrow=classic;html=1;curved=0;rounded=0;endSize=8;startSize=8;fontFamily=Helvetica;fontSize=12;fontColor=default;exitX=0.484;exitY=1.003;exitDx=0;exitDy=0;exitPerimeter=0;entryX=0;entryY=0.5;entryDx=0;entryDy=0;" edge="1" parent="1" source="DiaToFT7Mst47RzkWSO3-23" target="DiaToFT7Mst47RzkWSO3-62">
          <mxGeometry width="50" height="50" relative="1" as="geometry">
            <mxPoint x="231.35999999999967" y="973.1600000000001" as="sourcePoint" />
            <mxPoint x="745" y="513" as="targetPoint" />
            <Array as="points">
              <mxPoint x="520" y="750" />
              <mxPoint x="550" y="660" />
              <mxPoint x="520" y="1060" />
              <mxPoint x="410" y="1060" />
              <mxPoint x="750" y="590" />
              <mxPoint x="480" y="1060" />
              <mxPoint x="530" y="1060" />
              <mxPoint x="580" y="1090" />
            </Array>
          </mxGeometry>
        </mxCell>
        <mxCell id="DiaToFT7Mst47RzkWSO3-66" value="" style="rounded=0;whiteSpace=wrap;html=1;align=center;verticalAlign=middle;fontFamily=Helvetica;fontSize=12;fillColor=#dae8fc;strokeColor=#6c8ebf;gradientColor=#7ea6e0;" vertex="1" parent="1">
          <mxGeometry x="630" y="620" width="410" height="1130" as="geometry" />
        </mxCell>
        <mxCell id="DiaToFT7Mst47RzkWSO3-67" value="&lt;span style=&quot;font-size: 14px; font-weight: 700;&quot;&gt;DaVinci Configuration&amp;nbsp;&lt;/span&gt;&lt;span style=&quot;font-size: 14px;&quot;&gt;&lt;b&gt;配置OS&lt;/b&gt;&lt;/span&gt;" style="rounded=0;whiteSpace=wrap;html=1;strokeColor=#6c8ebf;align=center;verticalAlign=middle;fontFamily=Helvetica;fontSize=12;fillColor=#dae8fc;gradientColor=#7ea6e0;" vertex="1" parent="1">
          <mxGeometry x="630" y="620" width="260" height="28.48" as="geometry" />
        </mxCell>
        <mxCell id="DiaToFT7Mst47RzkWSO3-68" value="配置Det&lt;div&gt;&lt;ul&gt;&lt;li&gt;默认错误追踪器（Default Error Tracer）&lt;/li&gt;&lt;/ul&gt;&lt;/div&gt;" style="rounded=0;whiteSpace=wrap;html=1;" vertex="1" parent="1">
          <mxGeometry x="713" y="670" width="260" height="80" as="geometry" />
        </mxCell>
        <mxCell id="DiaToFT7Mst47RzkWSO3-69" value="配置EcuC&lt;div&gt;&lt;ul&gt;&lt;li&gt;指定芯片有多少核&lt;/li&gt;&lt;/ul&gt;&lt;/div&gt;" style="rounded=0;whiteSpace=wrap;html=1;" vertex="1" parent="1">
          <mxGeometry x="713" y="760" width="260" height="80" as="geometry" />
        </mxCell>
        <mxCell id="DiaToFT7Mst47RzkWSO3-70" value="配置OS&lt;div&gt;&lt;ul&gt;&lt;li&gt;增加核并跟上一步的EcuC的进行关联&lt;/li&gt;&lt;/ul&gt;&lt;/div&gt;" style="rounded=0;whiteSpace=wrap;html=1;" vertex="1" parent="1">
          <mxGeometry x="713" y="850" width="260" height="80" as="geometry" />
        </mxCell>
        <mxCell id="DiaToFT7Mst47RzkWSO3-71" value="配置OS Counter&lt;div&gt;&lt;ul&gt;&lt;li&gt;&lt;span style=&quot;background-color: rgb(255, 217, 102);&quot;&gt;参数设置的计算方法？&lt;/span&gt;&lt;/li&gt;&lt;li&gt;&lt;span style=&quot;background-color: rgb(255, 217, 102);&quot;&gt;配置几个counter？&lt;/span&gt;&lt;/li&gt;&lt;/ul&gt;&lt;/div&gt;" style="rounded=0;whiteSpace=wrap;html=1;" vertex="1" parent="1">
          <mxGeometry x="711.5" y="1070" width="260" height="80" as="geometry" />
        </mxCell>
        <mxCell id="DiaToFT7Mst47RzkWSO3-72" value="修改中断的中断源和优先级&lt;div&gt;&lt;ul&gt;&lt;li&gt;&lt;span style=&quot;background-color: rgb(255, 217, 102);&quot;&gt;如can等，需要通过芯片手册填入sourceID&lt;/span&gt;&lt;/li&gt;&lt;/ul&gt;&lt;/div&gt;" style="rounded=0;whiteSpace=wrap;html=1;" vertex="1" parent="1">
          <mxGeometry x="711.5" y="1170" width="260" height="80" as="geometry" />
        </mxCell>
        <mxCell id="DiaToFT7Mst47RzkWSO3-73" value="&lt;div style=&quot;line-height: 100%;&quot;&gt;添加系统资源&lt;div&gt;&lt;ul&gt;&lt;li&gt;共享硬件外设&lt;/li&gt;&lt;li&gt;​​全局变量或数据结构&lt;/li&gt;&lt;li&gt;跨核同步&lt;/li&gt;&lt;/ul&gt;&lt;/div&gt;&lt;/div&gt;" style="rounded=0;whiteSpace=wrap;html=1;" vertex="1" parent="1">
          <mxGeometry x="711.5" y="1270" width="260" height="80" as="geometry" />
        </mxCell>
        <mxCell id="DiaToFT7Mst47RzkWSO3-76" value="&lt;div style=&quot;line-height: 100%;&quot;&gt;修改CAN波特率&lt;/div&gt;" style="rounded=0;whiteSpace=wrap;html=1;" vertex="1" parent="1">
          <mxGeometry x="704.75" y="1380" width="260" height="80" as="geometry" />
        </mxCell>
        <mxCell id="DiaToFT7Mst47RzkWSO3-77" value="&lt;div style=&quot;line-height: 100%;&quot;&gt;Task Mapping&lt;/div&gt;" style="rounded=0;whiteSpace=wrap;html=1;" vertex="1" parent="1">
          <mxGeometry x="703.5" y="1480" width="260" height="80" as="geometry" />
        </mxCell>
        <mxCell id="DiaToFT7Mst47RzkWSO3-79" value="&lt;span style=&quot;background-color: transparent; color: light-dark(rgb(0, 0, 0), rgb(255, 255, 255));&quot;&gt;创建Task，并配置优先级&lt;/span&gt;" style="rounded=0;whiteSpace=wrap;html=1;" vertex="1" parent="1">
          <mxGeometry x="713" y="960" width="260" height="80" as="geometry" />
        </mxCell>
        <mxCell id="DiaToFT7Mst47RzkWSO3-80" value="&lt;div&gt;&lt;b style=&quot;font-size: 14px;&quot;&gt;模式管理&lt;/b&gt;&lt;/div&gt;&lt;ol&gt;&lt;li&gt;通信控制管理&lt;/li&gt;&lt;li&gt;ECU状态管理&lt;/li&gt;&lt;li&gt;模块初始化管理&lt;/li&gt;&lt;li&gt;上电初始化流程配置&lt;/li&gt;&lt;/ol&gt;" style="rounded=0;whiteSpace=wrap;html=1;" vertex="1" parent="1">
          <mxGeometry x="707.5" y="1600" width="260" height="120" as="geometry" />
        </mxCell>
        <mxCell id="DiaToFT7Mst47RzkWSO3-84" value="" style="rounded=1;whiteSpace=wrap;html=1;fillColor=#f5f5f5;fontColor=#333333;strokeColor=#666666;movable=1;resizable=1;rotatable=1;deletable=1;editable=1;locked=0;connectable=1;" vertex="1" parent="1">
          <mxGeometry x="1260" y="110" width="660" height="1580" as="geometry" />
        </mxCell>
        <mxCell id="DiaToFT7Mst47RzkWSO3-85" value="" style="rounded=0;whiteSpace=wrap;html=1;align=center;verticalAlign=middle;fontFamily=Helvetica;fontSize=12;fillColor=#fff2cc;strokeColor=#d6b656;gradientColor=#ffd966;" vertex="1" parent="1">
          <mxGeometry x="1350" y="249.99999999999997" width="410" height="298.48" as="geometry" />
        </mxCell>
        <mxCell id="DiaToFT7Mst47RzkWSO3-86" value="&lt;b style=&quot;font-size: 14px;&quot;&gt;AppL配置&lt;/b&gt;" style="rounded=0;whiteSpace=wrap;html=1;strokeColor=#6c8ebf;align=center;verticalAlign=middle;fontFamily=Helvetica;fontSize=12;fillColor=#dae8fc;gradientColor=#7ea6e0;" vertex="1" parent="1">
          <mxGeometry x="1350" y="249.99999999999997" width="260" height="28.48" as="geometry" />
        </mxCell>
        <mxCell id="DiaToFT7Mst47RzkWSO3-87" value="&lt;span style=&quot;font-size: 14px;&quot;&gt;DaVinci Developer配置&lt;/span&gt;" style="rounded=0;whiteSpace=wrap;html=1;spacing=-1;fontSize=12;fontStyle=1;fillColor=#dae8fc;strokeColor=#6c8ebf;" vertex="1" parent="1">
          <mxGeometry x="1350" y="130" width="480" height="60" as="geometry" />
        </mxCell>
        <mxCell id="DiaToFT7Mst47RzkWSO3-88" value="&lt;span style=&quot;color: rgb(77, 77, 77); font-family: -apple-system, &amp;quot;SF UI Text&amp;quot;, Arial, &amp;quot;PingFang SC&amp;quot;, &amp;quot;Hiragino Sans GB&amp;quot;, &amp;quot;Microsoft YaHei&amp;quot;, &amp;quot;WenQuanYi Micro Hei&amp;quot;, sans-serif; font-size: 16px; font-variant-ligatures: no-common-ligatures; text-align: start; background-color: rgb(255, 255, 255);&quot;&gt;打开&amp;nbsp;&lt;/span&gt;&lt;span style=&quot;font-size: 14px; font-weight: 700;&quot;&gt;Developaer&lt;/span&gt;" style="rounded=1;whiteSpace=wrap;html=1;" vertex="1" parent="1">
          <mxGeometry x="1490" y="200" width="150" height="30" as="geometry" />
        </mxCell>
        <mxCell id="DiaToFT7Mst47RzkWSO3-90" value="新建一个SWC Type" style="rounded=0;whiteSpace=wrap;html=1;" vertex="1" parent="1">
          <mxGeometry x="1950" y="275.76" width="160" height="50" as="geometry" />
        </mxCell>
        <mxCell id="DiaToFT7Mst47RzkWSO3-91" value="添加Runnable" style="rounded=0;whiteSpace=wrap;html=1;" vertex="1" parent="1">
          <mxGeometry x="1950" y="355.76" width="160" height="50" as="geometry" />
        </mxCell>
        <mxCell id="DiaToFT7Mst47RzkWSO3-92" value="" style="rounded=0;whiteSpace=wrap;html=1;strokeColor=default;align=center;verticalAlign=middle;fontFamily=Helvetica;fontSize=12;fontColor=default;fillColor=default;" vertex="1" parent="1">
          <mxGeometry x="1400" y="300" width="310" height="200" as="geometry" />
        </mxCell>
        <mxCell id="DiaToFT7Mst47RzkWSO3-93" value="设计SWC Type" style="rounded=0;whiteSpace=wrap;html=1;strokeColor=#6c8ebf;align=center;verticalAlign=middle;fontFamily=Helvetica;fontSize=12;fillColor=#dae8fc;gradientColor=#7ea6e0;" vertex="1" parent="1">
          <mxGeometry x="1400" y="300.76" width="260" height="28.48" as="geometry" />
        </mxCell>
        <mxCell id="DiaToFT7Mst47RzkWSO3-95" value="分配触发条件" style="rounded=0;whiteSpace=wrap;html=1;" vertex="1" parent="1">
          <mxGeometry x="1950" y="420" width="160" height="50" as="geometry" />
        </mxCell>
        <mxCell id="DiaToFT7Mst47RzkWSO3-96" value="设计好的Type类型拖动到ECU_Composition" style="rounded=0;whiteSpace=wrap;html=1;" vertex="1" parent="1">
          <mxGeometry x="1950" y="490.76" width="160" height="50" as="geometry" />
        </mxCell>
        <mxCell id="DiaToFT7Mst47RzkWSO3-97" value="&lt;div style=&quot;text-align: center;&quot;&gt;&lt;span style=&quot;background-color: transparent; color: light-dark(rgb(0, 0, 0), rgb(255, 255, 255));&quot;&gt;回到Cfg工具&lt;/span&gt;&lt;/div&gt;&lt;div&gt;&lt;span style=&quot;background-color: transparent; color: light-dark(rgb(0, 0, 0), rgb(255, 255, 255));&quot;&gt;1.Task Mapping&lt;/span&gt;&lt;br&gt;&lt;ul&gt;&lt;li&gt;&lt;span style=&quot;background-color: transparent; color: light-dark(rgb(0, 0, 0), rgb(255, 255, 255));&quot;&gt;并点开Task Mapping界面，将dDev新建的Runnable拖动到对应的Task&lt;/span&gt;&lt;/li&gt;&lt;/ul&gt;&lt;span style=&quot;background-color: transparent; color: light-dark(rgb(0, 0, 0), rgb(255, 255, 255));&quot;&gt;2.&amp;nbsp;&lt;/span&gt;&lt;span style=&quot;background-color: transparent; color: light-dark(rgb(0, 0, 0), rgb(255, 255, 255));&quot;&gt;Service Mapping&lt;/span&gt;&lt;br&gt;&lt;ul&gt;&lt;li&gt;将BSW和SWC连接上&lt;/li&gt;&lt;/ul&gt;&lt;/div&gt;" style="rounded=0;whiteSpace=wrap;html=1;align=left;" vertex="1" parent="1">
          <mxGeometry x="1950" y="571.52" width="330" height="158.48" as="geometry" />
        </mxCell>
        <mxCell id="DiaToFT7Mst47RzkWSO3-98" value="&lt;div&gt;配置Port Access&lt;/div&gt;&lt;div&gt;&lt;ul&gt;&lt;li&gt;点开SWC的Runnable,然后选中Port Access,新建C/S接口的访问&lt;/li&gt;&lt;/ul&gt;&lt;/div&gt;" style="rounded=0;whiteSpace=wrap;html=1;" vertex="1" parent="1">
          <mxGeometry x="1960" y="765" width="240" height="85" as="geometry" />
        </mxCell>
        <mxCell id="DiaToFT7Mst47RzkWSO3-99" value="生成代码&lt;div&gt;&lt;ul&gt;&lt;li&gt;生成用户代码（就是设计的SWC和一些回调等需要用户自己实现的代码框架）。（在对应的路径生成GenData和Source文件夹）&lt;/li&gt;&lt;/ul&gt;&lt;/div&gt;" style="rounded=0;whiteSpace=wrap;html=1;align=center;" vertex="1" parent="1">
          <mxGeometry x="1970" y="890" width="240" height="110" as="geometry" />
        </mxCell>
      </root>
    </mxGraphModel>
  </diagram>
</mxfile>
